<mxfile host="Electron" agent="Mozilla/5.0 (Windows NT 10.0; Win64; x64) AppleWebKit/537.36 (KHTML, like Gecko) draw.io/26.1.1 Chrome/132.0.6834.210 Electron/34.3.3 Safari/537.36" version="26.1.1">
  <diagram name="Page-1" id="_u7Ypm1cFdLLvgJlw9Nj">
    <mxGraphModel dx="1091" dy="688" grid="1" gridSize="10" guides="1" tooltips="1" connect="1" arrows="1" fold="1" page="1" pageScale="1" pageWidth="1654" pageHeight="2336" math="0" shadow="0">
      <root>
        <mxCell id="0" />
        <mxCell id="1" parent="0" />
        <mxCell id="fT2u_4A2vrV-Synes3U--1" value="" style="rounded=0;whiteSpace=wrap;html=1;dashed=1;strokeColor=light-dark(#6F6F6F,#EDEDED);fillColor=none;" parent="1" vertex="1">
          <mxGeometry x="591.79" y="200" width="740" height="540" as="geometry" />
        </mxCell>
        <mxCell id="fT2u_4A2vrV-Synes3U--2" value="&lt;font style=&quot;font-size: 16px;&quot;&gt;&lt;b style=&quot;&quot;&gt;Data Warehouse&lt;/b&gt;&lt;/font&gt;" style="rounded=0;whiteSpace=wrap;html=1;strokeColor=none;" parent="1" vertex="1">
          <mxGeometry x="851.79" y="190" width="160" height="30" as="geometry" />
        </mxCell>
        <mxCell id="fT2u_4A2vrV-Synes3U--3" value="" style="rounded=0;whiteSpace=wrap;html=1;fillColor=none;strokeColor=#d79b00;" parent="1" vertex="1">
          <mxGeometry x="611.79" y="260" width="200" height="450" as="geometry" />
        </mxCell>
        <mxCell id="fT2u_4A2vrV-Synes3U--4" value="" style="rounded=0;whiteSpace=wrap;html=1;fillColor=none;strokeColor=light-dark(#B3B3B3,#EDEDED);fontColor=#333333;" parent="1" vertex="1">
          <mxGeometry x="851.79" y="260" width="200" height="450" as="geometry" />
        </mxCell>
        <mxCell id="fT2u_4A2vrV-Synes3U--5" value="" style="rounded=0;whiteSpace=wrap;html=1;fillColor=none;strokeColor=#d6b656;" parent="1" vertex="1">
          <mxGeometry x="1091.79" y="260" width="200" height="450" as="geometry" />
        </mxCell>
        <mxCell id="fT2u_4A2vrV-Synes3U--6" value="&lt;b&gt;&lt;font style=&quot;font-size: 14px; color: light-dark(rgb(77, 77, 77), rgb(237, 237, 237));&quot;&gt;Bronze Layer&lt;/font&gt;&lt;/b&gt;" style="rounded=0;whiteSpace=wrap;html=1;fillColor=#ffe6cc;strokeColor=#d79b00;" parent="1" vertex="1">
          <mxGeometry x="611.79" y="220" width="200" height="30" as="geometry" />
        </mxCell>
        <mxCell id="fT2u_4A2vrV-Synes3U--7" value="&lt;font color=&quot;#4d4d4d&quot;&gt;&lt;span style=&quot;font-size: 14px;&quot;&gt;&lt;b&gt;Silver Layer&lt;/b&gt;&lt;/span&gt;&lt;/font&gt;" style="rounded=0;whiteSpace=wrap;html=1;fillColor=#eeeeee;strokeColor=light-dark(#B3B3B3,#EDEDED);" parent="1" vertex="1">
          <mxGeometry x="851.79" y="220" width="200" height="30" as="geometry" />
        </mxCell>
        <mxCell id="fT2u_4A2vrV-Synes3U--9" value="&lt;font color=&quot;#4d4d4d&quot;&gt;&lt;span style=&quot;font-size: 14px;&quot;&gt;&lt;b&gt;Gold Layer&lt;/b&gt;&lt;/span&gt;&lt;/font&gt;" style="rounded=0;whiteSpace=wrap;html=1;fillColor=#fff2cc;strokeColor=#d6b656;" parent="1" vertex="1">
          <mxGeometry x="1091.79" y="220" width="200" height="30" as="geometry" />
        </mxCell>
        <mxCell id="fT2u_4A2vrV-Synes3U--23" value="" style="html=1;verticalLabelPosition=bottom;align=center;labelBackgroundColor=#ffffff;verticalAlign=top;strokeWidth=2;strokeColor=#666666;shadow=0;dashed=0;shape=mxgraph.ios7.icons.data;fillColor=#f5f5f5;gradientColor=#b3b3b3;" parent="1" vertex="1">
          <mxGeometry x="916.79" y="290" width="70" height="70" as="geometry" />
        </mxCell>
        <mxCell id="fT2u_4A2vrV-Synes3U--36" value="Raw Data" style="text;html=1;align=center;verticalAlign=middle;whiteSpace=wrap;rounded=0;" parent="1" vertex="1">
          <mxGeometry x="681.79" y="375" width="60" height="30" as="geometry" />
        </mxCell>
        <mxCell id="fT2u_4A2vrV-Synes3U--37" value="Cleaned, Standardized Data" style="text;html=1;align=center;verticalAlign=middle;whiteSpace=wrap;rounded=0;" parent="1" vertex="1">
          <mxGeometry x="881.79" y="375" width="130" height="30" as="geometry" />
        </mxCell>
        <mxCell id="fT2u_4A2vrV-Synes3U--38" value="Business-Ready Data" style="text;html=1;align=center;verticalAlign=middle;whiteSpace=wrap;rounded=0;" parent="1" vertex="1">
          <mxGeometry x="1129.29" y="375" width="125" height="30" as="geometry" />
        </mxCell>
        <mxCell id="fT2u_4A2vrV-Synes3U--39" value="&lt;div style=&quot;&quot;&gt;&lt;b style=&quot;background-color: transparent; color: light-dark(rgb(0, 0, 0), rgb(255, 255, 255));&quot;&gt;Object Type: &lt;/b&gt;&lt;span style=&quot;background-color: transparent; color: light-dark(rgb(0, 0, 0), rgb(255, 255, 255));&quot;&gt;Table&lt;/span&gt;&lt;/div&gt;&lt;div style=&quot;&quot;&gt;&lt;br&gt;&lt;/div&gt;&lt;div&gt;&lt;div style=&quot;&quot;&gt;&lt;b style=&quot;background-color: transparent; color: light-dark(rgb(0, 0, 0), rgb(255, 255, 255));&quot;&gt;Load:&lt;/b&gt;&lt;br&gt;&lt;ul&gt;&lt;li&gt;&lt;span style=&quot;background-color: transparent; color: light-dark(rgb(0, 0, 0), rgb(255, 255, 255));&quot;&gt;Batch Processing&lt;/span&gt;&lt;/li&gt;&lt;li&gt;&lt;span style=&quot;background-color: transparent; color: light-dark(rgb(0, 0, 0), rgb(255, 255, 255));&quot;&gt;Full Load&lt;/span&gt;&lt;/li&gt;&lt;li&gt;&lt;span style=&quot;background-color: transparent; color: light-dark(rgb(0, 0, 0), rgb(255, 255, 255));&quot;&gt;Truncated &amp;amp; Insert&lt;/span&gt;&lt;/li&gt;&lt;/ul&gt;&lt;br style=&quot;background-color: transparent; color: light-dark(rgb(0, 0, 0), rgb(255, 255, 255));&quot;&gt;&lt;span style=&quot;background-color: transparent; color: light-dark(rgb(0, 0, 0), rgb(255, 255, 255));&quot;&gt;No &lt;b&gt;Transformations&lt;/b&gt;&lt;/span&gt;&lt;br style=&quot;background-color: transparent; color: light-dark(rgb(0, 0, 0), rgb(255, 255, 255));&quot;&gt;&lt;span style=&quot;background-color: transparent; color: light-dark(rgb(0, 0, 0), rgb(255, 255, 255));&quot;&gt;&lt;b&gt;Data Model:&lt;/b&gt; None (as-is)&amp;nbsp;&lt;/span&gt;&lt;/div&gt;&lt;/div&gt;&lt;div&gt;&lt;span style=&quot;color: rgba(0, 0, 0, 0); font-family: monospace; text-wrap-mode: nowrap; font-size: 0px;&quot;&gt;&lt;div style=&quot;&quot;&gt;&lt;span style=&quot;background-color: transparent;&quot;&gt;%3CmxGraphModel%3E%3Croot%3E%3CmxCell%20id%3D%220%22%2F%3E%3CmxCell%20id%3D%221%22%20parent%3D%220%22%2F%3E%3CmxCell%20id%3D%222%22%20value%3D%22Raw%20Data%22%20style%3D%22text%3Bhtml%3D1%3Balign%3Dcenter%3BverticalAlign%3Dmiddle%3BwhiteSpace%3Dwrap%3Brounded%3D0%3B%22%20vertex%3D%221%22%20parent%3D%221%22%3E%3CmxGeometry%20x%3D%22570%22%20y%3D%22280%22%20width%3D%2260%22%20height%3D%2230%22%20as%3D%22geometry%22%2F%3E%3C%2FmxCell%3E%3C%2Froot%3E%3C%2FmxGraphModel%3ELo&lt;/span&gt;&lt;/div&gt;&lt;div style=&quot;&quot;&gt;&lt;span style=&quot;background-color: transparent;&quot;&gt;jan&lt;/span&gt;&lt;/div&gt;&lt;/span&gt;&lt;/div&gt;" style="text;html=1;align=left;verticalAlign=middle;whiteSpace=wrap;rounded=0;" parent="1" vertex="1">
          <mxGeometry x="636.79" y="460" width="150" height="180" as="geometry" />
        </mxCell>
        <mxCell id="fT2u_4A2vrV-Synes3U--41" value="&lt;div style=&quot;&quot;&gt;&lt;b style=&quot;background-color: transparent; color: light-dark(rgb(0, 0, 0), rgb(255, 255, 255));&quot;&gt;Object Type: &lt;/b&gt;&lt;span style=&quot;background-color: transparent; color: light-dark(rgb(0, 0, 0), rgb(255, 255, 255));&quot;&gt;Table&lt;/span&gt;&lt;/div&gt;&lt;div style=&quot;&quot;&gt;&lt;br&gt;&lt;/div&gt;&lt;div&gt;&lt;div style=&quot;&quot;&gt;&lt;b style=&quot;background-color: transparent; color: light-dark(rgb(0, 0, 0), rgb(255, 255, 255));&quot;&gt;Load:&lt;/b&gt;&lt;br&gt;&lt;ul&gt;&lt;li&gt;&lt;span style=&quot;background-color: transparent; color: light-dark(rgb(0, 0, 0), rgb(255, 255, 255));&quot;&gt;Batch Processing&lt;/span&gt;&lt;/li&gt;&lt;li&gt;&lt;span style=&quot;background-color: transparent; color: light-dark(rgb(0, 0, 0), rgb(255, 255, 255));&quot;&gt;Full Load&lt;/span&gt;&lt;/li&gt;&lt;li&gt;&lt;span style=&quot;background-color: transparent; color: light-dark(rgb(0, 0, 0), rgb(255, 255, 255));&quot;&gt;Truncated &amp;amp; Insert&lt;/span&gt;&lt;/li&gt;&lt;/ul&gt;&lt;br style=&quot;background-color: transparent; color: light-dark(rgb(0, 0, 0), rgb(255, 255, 255));&quot;&gt;&lt;span style=&quot;background-color: transparent; color: light-dark(rgb(0, 0, 0), rgb(255, 255, 255));&quot;&gt;&lt;b&gt;Transformations&lt;/b&gt;&lt;/span&gt;&lt;/div&gt;&lt;div style=&quot;&quot;&gt;&lt;ul&gt;&lt;li&gt;Data Cleaning&lt;/li&gt;&lt;li&gt;Data Standrization&lt;/li&gt;&lt;li&gt;Data Normalization&lt;/li&gt;&lt;li&gt;Derived Columns&amp;nbsp;&lt;/li&gt;&lt;li&gt;Data Enrichment&lt;/li&gt;&lt;/ul&gt;&lt;/div&gt;&lt;div style=&quot;&quot;&gt;&lt;span style=&quot;background-color: transparent; color: light-dark(rgb(0, 0, 0), rgb(255, 255, 255));&quot;&gt;&lt;b&gt;Data Model:&lt;/b&gt; None (as-is)&amp;nbsp;&lt;/span&gt;&lt;/div&gt;&lt;/div&gt;&lt;div&gt;&lt;span style=&quot;color: rgba(0, 0, 0, 0); font-family: monospace; text-wrap-mode: nowrap; font-size: 0px;&quot;&gt;&lt;div style=&quot;&quot;&gt;&lt;span style=&quot;background-color: transparent;&quot;&gt;%3CmxGraphModel%3E%3Croot%3E%3CmxCell%20id%3D%220%22%2F%3E%3CmxCell%20id%3D%221%22%20parent%3D%220%22%2F%3E%3CmxCell%20id%3D%222%22%20value%3D%22Raw%20Data%22%20style%3D%22text%3Bhtml%3D1%3Balign%3Dcenter%3BverticalAlign%3Dmiddle%3BwhiteSpace%3Dwrap%3Brounded%3D0%3B%22%20vertex%3D%221%22%20parent%3D%221%22%3E%3CmxGeometry%20x%3D%22570%22%20y%3D%22280%22%20width%3D%2260%22%20height%3D%2230%22%20as%3D%22geometry%22%2F%3E%3C%2FmxCell%3E%3C%2Froot%3E%3C%2FmxGraphModel%3ELo&lt;/span&gt;&lt;/div&gt;&lt;div style=&quot;&quot;&gt;&lt;span style=&quot;background-color: transparent;&quot;&gt;jan&lt;/span&gt;&lt;/div&gt;&lt;/span&gt;&lt;/div&gt;" style="text;html=1;align=left;verticalAlign=middle;whiteSpace=wrap;rounded=0;" parent="1" vertex="1">
          <mxGeometry x="876.79" y="435" width="150" height="250" as="geometry" />
        </mxCell>
        <mxCell id="fT2u_4A2vrV-Synes3U--42" value="" style="html=1;verticalLabelPosition=bottom;align=center;labelBackgroundColor=#ffffff;verticalAlign=top;strokeWidth=2;strokeColor=#d79b00;shadow=0;dashed=0;shape=mxgraph.ios7.icons.data;fillColor=#ffe6cc;" parent="1" vertex="1">
          <mxGeometry x="676.79" y="290" width="70" height="70" as="geometry" />
        </mxCell>
        <mxCell id="fT2u_4A2vrV-Synes3U--43" value="" style="html=1;verticalLabelPosition=bottom;align=center;labelBackgroundColor=#ffffff;verticalAlign=top;strokeWidth=2;strokeColor=#d6b656;shadow=0;dashed=0;shape=mxgraph.ios7.icons.data;fillColor=#fff2cc;" parent="1" vertex="1">
          <mxGeometry x="1156.79" y="290" width="70" height="70" as="geometry" />
        </mxCell>
        <mxCell id="fT2u_4A2vrV-Synes3U--45" value="" style="endArrow=none;html=1;rounded=0;strokeColor=#d6b656;fillColor=#fff2cc;" parent="1" edge="1">
          <mxGeometry width="50" height="50" relative="1" as="geometry">
            <mxPoint x="1111.79" y="420" as="sourcePoint" />
            <mxPoint x="1271.79" y="420" as="targetPoint" />
          </mxGeometry>
        </mxCell>
        <mxCell id="fT2u_4A2vrV-Synes3U--46" value="" style="endArrow=none;html=1;rounded=0;strokeColor=light-dark(#b8b7b7, #ededed);" parent="1" edge="1">
          <mxGeometry width="50" height="50" relative="1" as="geometry">
            <mxPoint x="871.79" y="420" as="sourcePoint" />
            <mxPoint x="1031.79" y="420" as="targetPoint" />
          </mxGeometry>
        </mxCell>
        <mxCell id="fT2u_4A2vrV-Synes3U--48" value="" style="endArrow=none;html=1;rounded=0;strokeColor=#d79b00;fillColor=#ffe6cc;" parent="1" edge="1">
          <mxGeometry width="50" height="50" relative="1" as="geometry">
            <mxPoint x="631.79" y="420" as="sourcePoint" />
            <mxPoint x="791.79" y="420" as="targetPoint" />
          </mxGeometry>
        </mxCell>
        <mxCell id="fT2u_4A2vrV-Synes3U--55" value="" style="group" parent="1" vertex="1" connectable="0">
          <mxGeometry x="370" y="220" width="161.79" height="490" as="geometry" />
        </mxCell>
        <mxCell id="fT2u_4A2vrV-Synes3U--50" value="&lt;font style=&quot;font-size: 16px;&quot;&gt;&lt;b style=&quot;&quot;&gt;Source&lt;/b&gt;&lt;/font&gt;" style="rounded=0;whiteSpace=wrap;html=1;strokeColor=none;" parent="fT2u_4A2vrV-Synes3U--55" vertex="1">
          <mxGeometry x="16.29" width="127" height="20" as="geometry" />
        </mxCell>
        <mxCell id="fT2u_4A2vrV-Synes3U--16" value="" style="rounded=0;whiteSpace=wrap;html=1;dashed=1;strokeColor=light-dark(#6F6F6F,#EDEDED);fillColor=none;" parent="fT2u_4A2vrV-Synes3U--55" vertex="1">
          <mxGeometry y="10" width="161.79" height="480" as="geometry" />
        </mxCell>
        <mxCell id="fT2u_4A2vrV-Synes3U--15" value="" style="group" parent="fT2u_4A2vrV-Synes3U--55" vertex="1" connectable="0">
          <mxGeometry x="46.93723926380368" y="143.33333333333334" width="68.83435582822086" height="85.22666666666669" as="geometry" />
        </mxCell>
        <mxCell id="fT2u_4A2vrV-Synes3U--13" value="" style="image;aspect=fixed;html=1;points=[];align=center;fontSize=12;image=img/lib/azure2/general/Folder_Blank.svg;" parent="fT2u_4A2vrV-Synes3U--15" vertex="1">
          <mxGeometry width="47.23802441593853" height="38.334857780256556" as="geometry" />
        </mxCell>
        <mxCell id="fT2u_4A2vrV-Synes3U--14" value="" style="image;aspect=fixed;html=1;points=[];align=center;fontSize=12;image=img/lib/azure2/general/File.svg;" parent="fT2u_4A2vrV-Synes3U--15" vertex="1">
          <mxGeometry x="41.717791411042946" y="42.50666666666666" width="20.816756522277995" height="25.6526491912995" as="geometry" />
        </mxCell>
        <mxCell id="fT2u_4A2vrV-Synes3U--19" value="&lt;b&gt;Object Type:&lt;/b&gt; CSV File&lt;br&gt;&lt;div&gt;&lt;b&gt;&lt;br&gt;&lt;/b&gt;&lt;/div&gt;&lt;div&gt;&lt;b&gt;Interface:&lt;/b&gt; File in Foldeer&lt;/div&gt;" style="text;html=1;align=left;verticalAlign=middle;whiteSpace=wrap;rounded=0;" parent="fT2u_4A2vrV-Synes3U--55" vertex="1">
          <mxGeometry x="5.219447852760737" y="303.33333333333337" width="156.44171779141107" height="80.00000000000001" as="geometry" />
        </mxCell>
        <mxCell id="fT2u_4A2vrV-Synes3U--27" value="" style="endArrow=none;html=1;rounded=0;" parent="fT2u_4A2vrV-Synes3U--55" edge="1">
          <mxGeometry width="50" height="50" relative="1" as="geometry">
            <mxPoint x="10.434171779141103" y="263.3333333333333" as="sourcePoint" />
            <mxPoint x="146.01699386503066" y="263.3333333333333" as="targetPoint" />
          </mxGeometry>
        </mxCell>
        <mxCell id="fT2u_4A2vrV-Synes3U--57" value="" style="shape=flexArrow;endArrow=classic;html=1;rounded=0;exitX=1.01;exitY=0.331;exitDx=0;exitDy=0;exitPerimeter=0;endWidth=11.11111111111111;endSize=5.587301587301588;fillColor=#dae8fc;strokeColor=#6c8ebf;" parent="1" source="fT2u_4A2vrV-Synes3U--16" edge="1">
          <mxGeometry width="50" height="50" relative="1" as="geometry">
            <mxPoint x="531.79" y="390" as="sourcePoint" />
            <mxPoint x="591.79" y="389" as="targetPoint" />
          </mxGeometry>
        </mxCell>
        <mxCell id="fT2u_4A2vrV-Synes3U--59" value="" style="shape=flexArrow;endArrow=classic;html=1;rounded=0;width=12;endSize=2.466666666666667;endWidth=14.222222222222221;fillColor=#dae8fc;strokeColor=#6c8ebf;" parent="1" edge="1">
          <mxGeometry width="50" height="50" relative="1" as="geometry">
            <mxPoint x="821.79" y="389" as="sourcePoint" />
            <mxPoint x="841.79" y="389" as="targetPoint" />
          </mxGeometry>
        </mxCell>
        <mxCell id="fT2u_4A2vrV-Synes3U--62" value="" style="shape=flexArrow;endArrow=classic;html=1;rounded=0;width=12;endSize=2.466666666666667;endWidth=14.222222222222221;fillColor=#dae8fc;strokeColor=#6c8ebf;" parent="1" edge="1">
          <mxGeometry width="50" height="50" relative="1" as="geometry">
            <mxPoint x="1061.79" y="389.69" as="sourcePoint" />
            <mxPoint x="1081.79" y="389.69" as="targetPoint" />
          </mxGeometry>
        </mxCell>
        <mxCell id="fT2u_4A2vrV-Synes3U--63" value="" style="shape=flexArrow;endArrow=classic;html=1;rounded=0;exitX=1.01;exitY=0.331;exitDx=0;exitDy=0;exitPerimeter=0;endWidth=11.11111111111111;endSize=5.587301587301588;fillColor=#dae8fc;strokeColor=#6c8ebf;" parent="1" edge="1">
          <mxGeometry width="50" height="50" relative="1" as="geometry">
            <mxPoint x="1321.79" y="389.55" as="sourcePoint" />
            <mxPoint x="1379.79" y="389.55" as="targetPoint" />
          </mxGeometry>
        </mxCell>
        <mxCell id="fT2u_4A2vrV-Synes3U--65" value="&lt;span style=&quot;font-size: 16px;&quot;&gt;&lt;b&gt;Consume&lt;/b&gt;&lt;/span&gt;" style="rounded=0;whiteSpace=wrap;html=1;strokeColor=none;" parent="1" vertex="1">
          <mxGeometry x="1398.08" y="220" width="127" height="20" as="geometry" />
        </mxCell>
        <mxCell id="fT2u_4A2vrV-Synes3U--66" value="" style="rounded=0;whiteSpace=wrap;html=1;dashed=1;strokeColor=light-dark(#6F6F6F,#EDEDED);fillColor=none;" parent="1" vertex="1">
          <mxGeometry x="1381.79" y="230" width="161.79" height="480" as="geometry" />
        </mxCell>
        <mxCell id="fT2u_4A2vrV-Synes3U--72" value="&lt;div style=&quot;&quot;&gt;&lt;b style=&quot;background-color: transparent; color: light-dark(rgb(0, 0, 0), rgb(255, 255, 255));&quot;&gt;Object Type: &lt;/b&gt;&lt;span style=&quot;background-color: transparent; color: light-dark(rgb(0, 0, 0), rgb(255, 255, 255));&quot;&gt;Views&lt;/span&gt;&lt;span style=&quot;color: rgba(0, 0, 0, 0); font-family: monospace; font-size: 0px; text-wrap-mode: nowrap; background-color: transparent;&quot;&gt;%3CmxGraphModel%3E%3Croot%3E%3CmxCell%20id%3D%220%22%2F%3E%3CmxCell%20id%3D%221%22%20parent%3D%220%22%2F%3E%3CmxCell%20id%3D%222%22%20value%3D%22%26lt%3Bdiv%20style%3D%26quot%3B%26quot%3B%26gt%3B%26lt%3Bb%20style%3D%26quot%3Bbackground-color%3A%20transparent%3B%20color%3A%20light-dark(rgb(0%2C%200%2C%200)%2C%20rgb(255%2C%20255%2C%20255))%3B%26quot%3B%26gt%3BObject%20Type%3A%20%26lt%3B%2Fb%26gt%3B%26lt%3Bspan%20style%3D%26quot%3Bbackground-color%3A%20transparent%3B%20color%3A%20light-dark(rgb(0%2C%200%2C%200)%2C%20rgb(255%2C%20255%2C%20255))%3B%26quot%3B%26gt%3BTable%26lt%3B%2Fspan%26gt%3B%26lt%3B%2Fdiv%26gt%3B%26lt%3Bdiv%20style%3D%26quot%3B%26quot%3B%26gt%3B%26lt%3Bbr%26gt%3B%26lt%3B%2Fdiv%26gt%3B%26lt%3Bdiv%26gt%3B%26lt%3Bdiv%20style%3D%26quot%3B%26quot%3B%26gt%3B%26lt%3Bb%20style%3D%26quot%3Bbackground-color%3A%20transparent%3B%20color%3A%20light-dark(rgb(0%2C%200%2C%200)%2C%20rgb(255%2C%20255%2C%20255))%3B%26quot%3B%26gt%3BLoad%3A%26lt%3B%2Fb%26gt%3B%26lt%3Bbr%26gt%3B%26lt%3Bul%26gt%3B%26lt%3Bli%26gt%3B%26lt%3Bspan%20style%3D%26quot%3Bbackground-color%3A%20transparent%3B%20color%3A%20light-dark(rgb(0%2C%200%2C%200)%2C%20rgb(255%2C%20255%2C%20255))%3B%26quot%3B%26gt%3BBatch%20Processing%26lt%3B%2Fspan%26gt%3B%26lt%3B%2Fli%26gt%3B%26lt%3Bli%26gt%3B%26lt%3Bspan%20style%3D%26quot%3Bbackground-color%3A%20transparent%3B%20color%3A%20light-dark(rgb(0%2C%200%2C%200)%2C%20rgb(255%2C%20255%2C%20255))%3B%26quot%3B%26gt%3BFull%20Load%26lt%3B%2Fspan%26gt%3B%26lt%3B%2Fli%26gt%3B%26lt%3Bli%26gt%3B%26lt%3Bspan%20style%3D%26quot%3Bbackground-color%3A%20transparent%3B%20color%3A%20light-dark(rgb(0%2C%200%2C%200)%2C%20rgb(255%2C%20255%2C%20255))%3B%26quot%3B%26gt%3BTruncated%20%26amp%3Bamp%3B%20Insert%26lt%3B%2Fspan%26gt%3B%26lt%3B%2Fli%26gt%3B%26lt%3B%2Ful%26gt%3B%26lt%3Bbr%20style%3D%26quot%3Bbackground-color%3A%20transparent%3B%20color%3A%20light-dark(rgb(0%2C%200%2C%200)%2C%20rgb(255%2C%20255%2C%20255))%3B%26quot%3B%26gt%3B%26lt%3Bspan%20style%3D%26quot%3Bbackground-color%3A%20transparent%3B%20color%3A%20light-dark(rgb(0%2C%200%2C%200)%2C%20rgb(255%2C%20255%2C%20255))%3B%26quot%3B%26gt%3B%26lt%3Bb%26gt%3BTransformations%26lt%3B%2Fb%26gt%3B%26lt%3B%2Fspan%26gt%3B%26lt%3B%2Fdiv%26gt%3B%26lt%3Bdiv%20style%3D%26quot%3B%26quot%3B%26gt%3B%26lt%3Bul%26gt%3B%26lt%3Bli%26gt%3BData%20Cleaning%26lt%3B%2Fli%26gt%3B%26lt%3Bli%26gt%3BData%20Standrization%26lt%3B%2Fli%26gt%3B%26lt%3Bli%26gt%3BData%20Normalization%26lt%3B%2Fli%26gt%3B%26lt%3Bli%26gt%3BDerived%20Columns%26amp%3Bnbsp%3B%26lt%3B%2Fli%26gt%3B%26lt%3Bli%26gt%3BData%20Enrichment%26lt%3B%2Fli%26gt%3B%26lt%3B%2Ful%26gt%3B%26lt%3B%2Fdiv%26gt%3B%26lt%3Bdiv%20style%3D%26quot%3B%26quot%3B%26gt%3B%26lt%3Bspan%20style%3D%26quot%3Bbackground-color%3A%20transparent%3B%20color%3A%20light-dark(rgb(0%2C%200%2C%200)%2C%20rgb(255%2C%20255%2C%20255))%3B%26quot%3B%26gt%3B%26lt%3Bb%26gt%3BData%20Model%3A%26lt%3B%2Fb%26gt%3B%20None%20(as-is)%26amp%3Bnbsp%3B%26lt%3B%2Fspan%26gt%3B%26lt%3B%2Fdiv%26gt%3B%26lt%3B%2Fdiv%26gt%3B%26lt%3Bdiv%26gt%3B%26lt%3Bspan%20style%3D%26quot%3Bcolor%3A%20rgba(0%2C%200%2C%200%2C%200)%3B%20font-family%3A%20monospace%3B%20text-wrap-mode%3A%20nowrap%3B%20font-size%3A%200px%3B%26quot%3B%26gt%3B%26lt%3Bdiv%20style%3D%26quot%3B%26quot%3B%26gt%3B%26lt%3Bspan%20style%3D%26quot%3Bbackground-color%3A%20transparent%3B%26quot%3B%26gt%3B%253CmxGraphModel%253E%253Croot%253E%253CmxCell%2520id%253D%25220%2522%252F%253E%253CmxCell%2520id%253D%25221%2522%2520parent%253D%25220%2522%252F%253E%253CmxCell%2520id%253D%25222%2522%2520value%253D%2522Raw%2520Data%2522%2520style%253D%2522text%253Bhtml%253D1%253Balign%253Dcenter%253BverticalAlign%253Dmiddle%253BwhiteSpace%253Dwrap%253Brounded%253D0%253B%2522%2520vertex%253D%25221%2522%2520parent%253D%25221%2522%253E%253CmxGeometry%2520x%253D%2522570%2522%2520y%253D%2522280%2522%2520width%253D%252260%2522%2520height%253D%252230%2522%2520as%253D%2522geometry%2522%252F%253E%253C%252FmxCell%253E%253C%252Froot%253E%253C%252FmxGraphModel%253ELo%26lt%3B%2Fspan%26gt%3B%26lt%3B%2Fdiv%26gt%3B%26lt%3Bdiv%20style%3D%26quot%3B%26quot%3B%26gt%3B%26lt%3Bspan%20style%3D%26quot%3Bbackground-color%3A%20transparent%3B%26quot%3B%26gt%3Bjan%26lt%3B%2Fspan%26gt%3B%26lt%3B%2Fdiv%26gt%3B%26lt%3B%2Fspan%26gt%3B%26lt%3B%2Fdiv%26gt%3B%22%20style%3D%22text%3Bhtml%3D1%3Balign%3Dleft%3BverticalAlign%3Dmiddle%3BwhiteSpace%3Dwrap%3Brounded%3D0%3B%22%20vertex%3D%221%22%20parent%3D%221%22%3E%3CmxGeometry%20x%3D%22545%22%20y%3D%22325%22%20width%3D%22150%22%20height%3D%22250%22%20as%3D%22geometry%22%2F%3E%3C%2FmxCell%3E%3C%2Froot%3E%3C%2FmxGraphModel%3EV&lt;/span&gt;&lt;/div&gt;&lt;div style=&quot;&quot;&gt;&lt;br&gt;&lt;/div&gt;&lt;div&gt;&lt;div style=&quot;&quot;&gt;&lt;span style=&quot;background-color: transparent; color: light-dark(rgb(0, 0, 0), rgb(255, 255, 255));&quot;&gt;No&lt;/span&gt;&lt;b style=&quot;background-color: transparent; color: light-dark(rgb(0, 0, 0), rgb(255, 255, 255));&quot;&gt; Load&lt;/b&gt;&lt;/div&gt;&lt;div style=&quot;&quot;&gt;&lt;b style=&quot;background-color: transparent; color: light-dark(rgb(0, 0, 0), rgb(255, 255, 255));&quot;&gt;&lt;br&gt;&lt;/b&gt;&lt;span style=&quot;background-color: transparent; color: light-dark(rgb(0, 0, 0), rgb(255, 255, 255));&quot;&gt;&lt;b&gt;Transformations&lt;/b&gt;&lt;/span&gt;&lt;/div&gt;&lt;div style=&quot;&quot;&gt;&lt;ul&gt;&lt;li&gt;Data Integrations&lt;/li&gt;&lt;li&gt;Aggregations&lt;/li&gt;&lt;li&gt;Business Logis&amp;nbsp;&lt;/li&gt;&lt;/ul&gt;&lt;/div&gt;&lt;div style=&quot;&quot;&gt;&lt;span style=&quot;background-color: transparent; color: light-dark(rgb(0, 0, 0), rgb(255, 255, 255));&quot;&gt;&lt;b&gt;Data Model:&lt;/b&gt;&amp;nbsp;&lt;/span&gt;&lt;/div&gt;&lt;div style=&quot;&quot;&gt;&lt;ul&gt;&lt;li&gt;&lt;span style=&quot;background-color: transparent; color: light-dark(rgb(0, 0, 0), rgb(255, 255, 255));&quot;&gt;Star Schema&lt;/span&gt;&lt;/li&gt;&lt;li&gt;&lt;span style=&quot;background-color: transparent; color: light-dark(rgb(0, 0, 0), rgb(255, 255, 255));&quot;&gt;Flat Table&lt;/span&gt;&lt;/li&gt;&lt;li&gt;&lt;span style=&quot;background-color: transparent; color: light-dark(rgb(0, 0, 0), rgb(255, 255, 255));&quot;&gt;Aggregated Table&amp;nbsp;&lt;/span&gt;&lt;/li&gt;&lt;/ul&gt;&lt;/div&gt;&lt;/div&gt;&lt;div&gt;&lt;span style=&quot;color: rgba(0, 0, 0, 0); font-family: monospace; text-wrap-mode: nowrap; font-size: 0px;&quot;&gt;&lt;div style=&quot;&quot;&gt;&lt;span style=&quot;background-color: transparent;&quot;&gt;%3CmxGraphModel%3E%3Croot%3E%3CmxCell%20id%3D%220%22%2F%3E%3CmxCell%20id%3D%221%22%20parent%3D%220%22%2F%3E%3CmxCell%20id%3D%222%22%20value%3D%22Raw%20Data%22%20style%3D%22text%3Bhtml%3D1%3Balign%3Dcenter%3BverticalAlign%3Dmiddle%3BwhiteSpace%3Dwrap%3Brounded%3D0%3B%22%20vertex%3D%221%22%20parent%3D%221%22%3E%3CmxGeometry%20x%3D%22570%22%20y%3D%22280%22%20width%3D%2260%22%20height%3D%2230%22%20as%3D%22geometry%22%2F%3E%3C%2FmxCell%3E%3C%2Froot%3E%3C%2FmxGraphModel%3ELo&lt;/span&gt;&lt;/div&gt;&lt;div style=&quot;&quot;&gt;&lt;span style=&quot;background-color: transparent;&quot;&gt;jan&lt;/span&gt;&lt;/div&gt;&lt;/span&gt;&lt;/div&gt;" style="text;html=1;align=left;verticalAlign=middle;whiteSpace=wrap;rounded=0;" parent="1" vertex="1">
          <mxGeometry x="1116.79" y="435" width="150" height="250" as="geometry" />
        </mxCell>
        <mxCell id="98nGRjk7aEeAaqDEree2-1" value="" style="shape=image;verticalLabelPosition=bottom;labelBackgroundColor=default;verticalAlign=top;aspect=fixed;imageAspect=0;image=data:image/png,iVBORw0KGgoAAAANSUhEUgAAAMEAAAJmCAYAAADlxOTjAAAAAXNSR0IArs4c6QAAAARnQU1BAACxjwv8YQUAAAAJcEhZcwAADsMAAA7DAcdvqGQAAI/KSURBVHhe7J13eBRV28bvmd3N7qb3HpJAaAESem+CFEWkKIrKa8eODbAX/ORVxPJiVyzYRcQCCtKl9xYCJAQSEtJ7z9aZ5/sjO8PO7CaEECDJzu+6BrLnPHNmy3OfXhgiIigouDCsPEBBwdVQRKDg8igiUHB5FBEouDyKCBRcHkUECi6PIgIFl0cRgYLLo4hAweVRRKDg8igiUHB5FBEouDyKCBRcHkUECi6PIgIFl0cRgYLLo4hAweVRRKDg8igiUHB5FBEouDyKCBRcHkUECi6PIgIFl0cRgYLLo4hAweVRRKDg8igiUHB5FBEouDyKCBRcHkUECi6PIgIFl0cRgYLLo4hAweVRRKDg8igiUHB5FBEouDyKCBRcHqZdnV5JHEBWeeilw7oBYOShCu2EdiECstaCO/M+rGc+BCyV9f4q+1QEgCFZcAOfnMR/AIAB49UDbgn/B1XYRImdQvugXYjAcuJVWFP+z6nzA87DpI5uF06ycOFv1g3ukzPAuEfYRSq0B9pFm4A790P9H3Knlju0EOQsnJfZy214M0z7H7ELuHjaQX7TLmkXIoClXPpa5sCC0ztzfsGWsS9FGrChuiybWpoHwyjtitZI+xCBkMPaObmY6dpFidiJwl4gEpEIf5PSJm7vtBMR2Dm2TQAMYycEua393w05vz22107TU2hxrnS1sV2IgLc5KMHRYcWv087hiezaAPbIX9vCRPt2Ak+E33cdxq87DqKkqkYefdW50tXGdiGCBr8yueMLuby9szsLs4WL97QzeJ7wb1IqNh85icqaOnm0y9EuRODMgSVObJ+L2ytGfh/OC0V0fqHB3E4FodBOREDiP/UOL8nByc6ReaHu5CgA+yqS5F4hTGqu0I5oFyIQnVTuwM7+lmMfx0hLCrKl67QapdBuaB8igK0EEKo9F3J+oaokb+zawhxKEuFPZ2kptHnahwjISV3f3mHtHNrewYVuVEEQDo4vu68twvO8w0V26ueJHOLrbdroB24G7WLuUN1vfiBzhfNc34bTTymUBrIqkDB6LBEFA7B+ifCcfBhgrmzewdeVwZTyt62BwkATPRzqwE5yMweKK6vxy7b9sFg5STgRcCqnAARCTEgQ9G5qSTwAdO8Qjgn9ezbc82ajvLoW+09miK/7dIlGsJ+3xKa10z5EsNImAhlOP5ld+0EeLv7ZQBzrlwjPG6+8CKzFqahYcTvAWQCGhee1r0PX/Ua5mQM5xeVYtGItTJaLn14+JD4O94wbesE++7RzBXjrhzVi5jFnxrXo3TlabtaqaRciqP1VJgJnn8jeye3/EHJ9mY0Qbx/O+ifC66qJ4DaAswIMA89rFzZJBDUGEw6fyQTHST8YTzx+23kYVp7HuD7dEejtJYkHgBB/H8R3CJMHO5B2rgCLflgD2L7KtiiCK/trXibI1igm3rauxv617eJtl+DUgvTFtoC9n9heO4S3MTz1Wozs1RXX9O4muUYldINKxYJlgL5x0Q7x1/Tu1iQBiEi+p8ZLjtZIuxABzwG8tV4AvE0EvO1v4bWI7cdi5H/DrpHcUEPYWZiC3RcoC28jtAsRCLm/vQDEUsC+90ceJtxvKxHshWGPKAonca6OpABoe4UA0KpEQBbAnAuY8kBOr9wGL7AakEoLntWCY+v/J5UWpHID8Qw4q600sDmz6Ox2AoHN2aXvSXH8C3He79vuF9U6Gsa1B4HcNwC+0s4T7d6WWJ+Rv1WbB3MWkCRfF+II4KyoSs+CpbQKKhXAqm3jA/amMsRcX1bMq/wS4TWt7TSMG8LK8Xjq8+WwWK2Yf/NEdAoPlps0GbFhLPYOjUPvzh3kZq2aK/trOsOUCeS8CnClAG+u3y2CLHb/m23/C2HWejveDHA2e6b+B2AYspXKPBjY/lap4NMlFm7+vufbCHAiAGdtAZJNvlNoGFsvm+MX2/q5+iLIfxfgqqSVcrLNdHPmlWK9xn62m+2SVNwFD64P14X6w2yxm0AnQwyyTwLSeq6T29okKpbBQ9ePwqOTxyDM31ce3XyEEraNcfWrQ6enApZS2wt7p3fm/Mx5sZB9uL2dzfkln4rAWyzI25kKvSegtg2QOuhLGC22C7OvErF+ifCe3rLVIWtxCkwpq+TBEnhDBUxp/4if1a3DUKj8Y+VmElQ+HaBLmHlJ73Xv8XRk5BXJgyVU1BhwMOWs+D0lxkUhyNdx3MGenp0ikdApSh581bj6IkibUi8CBjKHhp1T2y7B8WFva/NUoWQQ7XC+LkME3mJFzo5T0HsAbm7n/VsuBCE3E31feDxT3yZoaRGYTq9H9T/z5MGXjCa8P3ymf1HfCGoGRISv/96BXcmnZRHS0lHyWsyc7MKFpa529jeO6I2pI/sJIVedlvs1m43guDIBkK0/U6wW2dsKnmn7aok7Hy63s6s28cKfNhNerjnbj8nIbgXsHntZYJpwyZHHy64LTHdoEg0lIf8iZD8HYHev0ypSQwlfHVpBSXAjYCk5/5psTs/Iv2xhaNfJazHczvnF8Pq0eJMZWdvS4ekFqN1sP4Pdb0F2VSFJcra3BAZQ+SfC56aWLQmshSdgPPGbPFgCGStgSt8sZhSayIFQ+TY+NUHlGw19n1kAo5JHNQki4K9dR5CcniOPsf3PACAYTRbkllTYvjQGoQE+8NBrpXb1piBbZ8XwhK4Y1aerXZpXl6svglOTAWuptKHLCNUbSJ1a4uSyXB8y7xXut6XHW6w4++8ZeHkBbjqbmR1CkucDpC9BNhHc3LIikH4+51hLTtkm0AldpK9D122y3EzGpZcGHM+Dv8B7O32uEO/8/A9g+9kenj4WiZ0br++zDAsVe2nvrSVpyV+zeRB3vjojhgmCsJ/YI0wCEuoqQri9AOzuISHM9j8RiBixCiQkQYJe7B9vLwD7R5w3aUGYelE1djlUH5pwzyUKAABULAuNStXopVax9V+M7XFq1YXvaU0CQKsQgeBlojcKTmwvBPvuUrtLCOOF+4TLXlT24pA92s757UUhvrZ/bHuBCGSskVzgpesNXI2rLwLRy+ycXejiFEQh2MmdX7gHwhRRoQplq4SCQMSDeGv9SinGVpAI+rJbWSbmTXav7TPT9iIEvroExW+MQ/Hro+qvhaNhyUuRm10cTNv+cq6+CMRcWnBy+xydpGIQsmd7wYiCgF21od6GbCVC/cIQkjiy+DjY6cqWJGOLby+Obw+BQJwJZDWfv8TMo7nUdwG11a+rFYhAwF4Mttf2F9kLRLCVVeZBIOJsuf95gRAvbXPIHyFozSFe4aJoXTX9pnP1RSDm+vY5uyznl8TbVZHqE7Bzfs4uCxdEItzLSXJ3B0eXv7bD6WMVpLRVBbQOEdiXADbnFUsAO+cXSgrYohjbH3S+2nM+0v5+YSCNP28hJGcnCqcIjxSEI4+/RCwchzqTGXUmc7vY3aH+EzT8OTKzi3E0ORNHkzNRWFwpj75qXH0RSJzeVi8hoaErhNn+tm+98jyI5+qnUIveLWTXshU2dll4wz+RHfa6vIzsSD6NN39Zizd/WYvKWoM8WkZbyWqdv08iwpoNh/DOh6vx7kersf+QbDrGVeTqi0Di6DwA+SJhu1UwRPXVGp4DCY5NZOf0tktcU0m2fvbz3i8k5QxJoXQFqDWaUFBWiYKySnAOczjOw2q9oI29FtpO46HtNB4qr4tY/3uZ8dTrMKBbLAZ0r798PN3lJq2eqy8C2HJw0QOdeKFNKEKjVwwT7bl68chLDaFUIa5+PYKQlAwhqYbEAcGmkfjLCesdAa+Ji+B13dvwmrgYmsj+cpOrRniQLx6cdg0enFp/xYYFyk1aPa1ABEIJIAjBPq7eO4m3OT/Blpfb3SOUHPbbSQh9nOABstrGCXgHJ76Q8xPskr2KIgAAsOz5q4Eqx9WCZRjxaotcfRGIOb/Nw8T6Sn2Dl0hYP0C23F7I+YUcXqj22N3L8yDeIjq/xNOFWpXdI+WQbRBaKHTqS5SG7RXaNpc+gY6rBCrXAJYCm3NeJObsBu6j+qWTpkJQ1UnbId2yrJvsqj02LyXeVjoI3m6Dt3A4vaMKnh4EvZMJdLAlJ95i/whbBqcKSETAbS03ge6vvUlYvfcoAGDRvTchwNtTbtJkyGwAX2M3G7cB+JpSlH12b/1udjZ87vwfNGEXntXJuvuA0TVvi0Uiwidfr8eefWlgGOCWaUMxeWLrqNZdmgh4A1D4DsBVy2NaDuLrd6Ao2+040a7ewOa99aVGfaHBC3UiMZ63cDizqwbu7gR3mQgkJYPN4Ym3TWYVJrUCUDdTBDUGE6rqHHt/th47hX+TUgEAT00fB18PaaOSYRj4e3lAq7nwwhjTya2o/P5JebBT6gcPz8OwTZtu7TH+UXhcM1seLIHjeZzJKADHSRv6RIRVaw/gZGoOGAYYPbwHhgx0FJ63lzsiw/3lwZeVSxNB7QGg/Fd5aAsg5PjC3xyoeANgqT5fHRbeNm+V9RThfJeokAZx4C08Tu82wNP9fEkgNDPs29CAbM6QXQ1c5Z+IgNsvXgQbDp3An3uOyIPB8yT2CmlUKoeqPsswmDNlLLpGhkojnGA6uRUV386RB7conhMeh8eYxkVgMJjx7IIfUVlVK48Cz5M4HsIyDBgns0kH9e+MR+6bIA++rFzcrymDN5fJgy4Nof4u5viCUzMAa1sJQzaBEAfwlnoBCGEguwa20NVqG0UGnS80hDo/bMH2j5IheaQ8sokIzRX5JbFhGHHqslajgd5NA3edFir2kn6iq0D9Vu8c53jZ57c8kUO83OZKcUklAV/2D9i6f+XBzUBoHEPmjYKH8qDSrYCpRBRKvfPb2cFeCHbebnvNW3ik7TbDU0/Qac9XdUi2oszZ6jLhT01AIgLuuPiSoLK2DmVODsjbcfw0diSnAbbqUIC3JzQqFfRat/Nz9ZuI6dROVC1/Xh7sCPHgDVWSIEbnCaYJa5Hdx8yGx4g75cESLBYOG/5NgslkloQTgINH0pGdU7+pQo/4KHTt5DjeEREegEH9OsuDLytXUQT2VR7ba/FPO2e2xVHxFpCpyM6xxUrMeXu76g8gHGRcH8dbCWm7rPBwJ+i1dk5uq/4Ir0Vx2LUJBNSBiQhshggaoiUbxuCsIItju0MOV1WM0iU3n28YMwz87v8Cmsh4uakjajcwaq081CkOTiVvGE8dihuuc2wYy0vIK0HL/JoXg1hFsa/yCPUNoSokiEC4p35dwHkBwFZ6CGkJf8uFYJeOLUdnZb+OvGtb7BqVCaDVo1KD0Xk14fJ09DSt3omdk6uJAsAFqn5AfaDcxqndFeAKicCWI8sd0975IVz2nic4tX2cIBrbKLEoAJuNRCznBSD53+b89rm++Cg7jSm4BpdZBPY5fEPObxOImCXbCUYUgODQtnt4i2O6Ens7DyZbrg7HrEbYgsUp8mzJrm2g0L64DCIQHFyo8th5mui49uHyOHtx2C4huxYnydm/FtKzS0vAJgD718LySuLqo0hI3omHi3H2hctVwJiZjZOzHsPJmQ/h5MyHULzyb7nJVSMlowC3zl2GW+cuw8x5y3Dg+Dm5SaunBUVgl1PLqzxCzi466oVyfVuc6H12U6KF16JQGsnOZQIg2/9iUAO3AXZv1d6mMftm4OflgbjwYMSFB0OtanjAiqszoHr/YVTtq7+Muflyk6tGda0R+45l2q4slFc69oK1dlpABEJVxG4ejxAucXB7rxJyfJuj298jKQ3shSFky8JhA06cX0zG5vG2/0nW/yxEO0N8vJ2BmJy9YQswrEccnrnlOjxzy3Xw8dDLo9sVDMPgmuE9cf+dY3Hff8YisWfjm4ddSS5NBEK9QuIegigER7bHzskFMUjusROJxO1sYQ1VewSEnJ9hABCIt/UqwebJqK8OSbAlJ+rRPkr2sRp6bHO52r0iV5r4rpEYPbwHRg/vgQ6RQfLoq8aliUBEcG55aWAXJ1ZhnJUKguMLl+0+wK7UkKcrw+axRILz22xt/9U7mmxjTLsCQw4Jc4bs36pCu+QSRWDn/A65t8x5RW+CXfXJTiCSe21/S9oKjUD1uT/xZEvKrv4iJCW8BSHa7rWQhjzc/i0rtF8uXQRyBxUcW8y5BS8URCHMYLS/1875JSWKECd4py3I7hayDaQRJxOSxNb2wi5nFwXQgCAkSQnx9jZtFAYMGFYNRmW7WLULVcicc4kiEBA8S14iCOFCmDzXl9lIqjx29kK45LcS+juFW4Tt5ezEIvduJ04sCRLTOv9aIo52AOPhC7/7Poff7K/gN/sr+M7+EprgjnIzl+LSREA2R3XI+e3CxOqMfYlh5+gO7QiyW0Emy92FW3i7er/g9IK3Cn/be6+wIMAewcTJI+qfUR8kNlzlNm0URqWBJqYPNLF9oYntC7fYvmC0HnIzl+LSRCB4i+AhouMLHtNAzk/Oqjy8zfnteoAYSNKXNHgBJ7n++SgJti4h8R2I95w3Ed+yLRlbBxNI2O/3cpUKHAfeWNfoRSaT5BayWh1sHC7ZPc3BZLaizmBu9DKarNJ7LBYHG/llsQhV4tbBpc0iLVkFtnZd/Qt7LxKReZtoI4+T3SdJq/7iC/4FGW1nm0necSPObxdutRBO7Qc83Hjo3eyNnDi37O0IQZrgRITc3XKzSAGgYvsenPvve/JgCbzJAuO5fPGNagJ8oQnwkZtJ8EiIR8c3XwGjbngQrjGICIu/3oyNuxrfrNdgtiC38PxGWmFB3vDQyb5gGbNuHIi7pw6SB181LlEEf9aLgGCX4wsIWal9SSAbKXbwNCEctv9taYDA5289LwLB1j5JMdzxNRGB4+AgArI9QngKIKu12b1r4m0iuLdlRVC6ZhNOP/aCPPiS8RrUF/HffwSmCUsznUFEmP/On1i5oX6qd0vy+KxRePquMfLgq8Yl/ppk1xh2Ei5pKMOuymNvb1c9gm0xvWAvVq/sBuTIrl7SiADqe43ItkNdfSNavFWws90vas/WDrC/YHe2WfOziwshtDwaupwht5FeDd11sTAM0+jlDLmN/Gr4M10dLrEk+ANszT9SJ3dIzuZh5KR3R9ImINuXY/tbViXi87eDjA0s57R/pM35xcaw7f1wViD1AAMPNx7uttMrz3u6lIbiLkdJYDyXg8rtu+XBEsz5xcj9/AeAq69L+14zFH5jhsrNJLgFB8Hv2lG2fYqax6nMIhSVNb6JwqmzRVj4ma1KDOCpO69B3x6NH9fUIdQP0Vd4MX1jXKIIfgdbs9YuKxW8XEhSKAVs4UQAY99wtreVO740js/f4SgC+3dOtvMHhOqNbH6EKAKNrTokNCXsl1QK/zRQ01IHJSL0vpYVQVOoPZmG41PvBlnqG6ERT85G1BONL3hvjFOn8/DX+oMAT/AN8MLdt46GWt28z7Q/ORO3PL0MsJUAn786E+OHdZObtWqa98kFCHZ1fgFbvULs5bHZkK3nR1J9IlspIe9KtYWLgpA9QwgGxJyfYPNaW/epA8JbcVKbIqFQsnuMXADNzypaH5XVdTh2PAtHj2ch9XQueLFEdk0uTQQigldapZ4klhDytgGkUyecxcsFILyUmNicn+qd33F2nO09SEoeW7Dw9mwvnDm5cCvZlRYK7Y9LFIHg4LLcncgu53eW6wulREOObxcvd2JhgpytoSuOEssR7xNeS/6TFjSwqxLZOb4QzjB2hZVCu+MSRQCb0wveI1R37HN2u3BJlcdeHDaHF0VlF2ULP9/bIzzTifOL70Pm/PZmwqNkCLfZ5/gMU7+WhxcKLIV2ySWKQHA4wXnts1c7ATiE2+6VCEKwEdK1pUm2vwUHF+YLySGZt8teCkGS13YBYo5v9xZc/GRTl+HSReBQn7c5t6TaY+/w9q+Fv+2d166hbO/Y1IjzN5bz22FfrSdZFUgItH90W28GWDkeFgvncHHW80UhEWB1YmOxuk4OcGldpMW/gK3+0/ZKyL0FLxT6/EXr83aS/wUvFO63RxAABy5vH8goO+dK7vwNQHx9F+mpIyy0LA9PzXkRCEk4PNoOQv1RveqQRITPbjtdpD+v3InTGfkO8q+uMSK/oBwA4OamRnRUoMMglkajwuMPXA8Pj8b3GlK6SEG2XN/Z6LAgBvsSwE4kZHNi4T7RC+3T5M9vyW6Pfe4vPMYJzgoJ4PxvLeT4cgFIXMbu7V4tGIaxzf9X1V9NHADLyy9D2pl8pJ3Js7vyRQEAgNlsxen0Age79IwCWG2Dc43BgIFaxUJluxoaRW7NXFpJUPQz2Orfba/skxE8UwgT/ravdAvVHSFe+FMQjbSCzuUfABkq7OzO/ymHhAmoNhsigLcCqUdZ6FiCh6beqxv75JI421vXXKWSgKuuQdX+o6JadR2joe944YXqn3y5DsdOZsuDYbVyMBrr9wplWQbu7lqZ9AGtVoPXX7gV3l6NbwBQXlWHQyfOb7OS2DUSQf6XsJ3kVaAFRPCb7ZXc4QUPFOodtlJAku3aealQSgjJiF5cH8flHgKZbNWhBt6xaG6riRHO23JW4NRRFlqG4KFuIAEhDTm2ME3o1RFBc6kzmiX1f4HDxzLw1XebwfOE4DBfvPjUTXCTzzZlGHi6u7XJnP1iaYFf87yjSqs+dl7JW+26SO3shVaopBplS1PcWMuugSzcKoPkubrwWn4BYJwmYJeGk2jYqsttzR3cdW7w8tQ5XHq7qc4sw8DLQ+tg4+WhdQkB4NJFYOfQEg8Vcnyhh0jIjezsRee3d3L79oXMI505p/AY+2TtBWF/j/B7yn5YsmlLDG3E2Z29BYW2TwuIQJbzk3Dco51zA+cFQcLIk5Cz29IQt4OWOb8z7HNuu9f28Q5JyGyFS3B4+5JAfqtC++aSRMBq/c87vsOosM25xTgnYhGFIa8OOc+LReeF1NGF1xLN2SERiB1iWrYCQtZLeD5NGyrP8DbTHlBoOpf2i7onAqxelusLl32VxxZGwgoVu5HgJiL6ot0jSHDwBpxceKSkp8gu2r5mJE9CsBdrUW6e8Bv7pr1Jk7iEfgeFK8SliUATDkS+C6g87TzTrkFr76miIOTVpItAKAmclAYSM1kOLghBgsyGsQsjYU2OcBOrRsCkL+AWknj+hibSWhuX4lfXSt/fleSSukhFeCNgybcNbDXEpT2GzHW2BrMQYB97YYgAo6Fe9U4OTWwYhoHaJwasvvWshLpUzGYrqmvqj3ZSqVj4eHu4tBZaRgQKCm2YS6sOKSi0AxQRKLg8iggUXB5FBAoujyICBZdHEYGCy6OIQMHlUUSg4PIoIlBweRQRKLg8iggUXB5FBAoujyICBZdHEYGCy6OIQMHlUUSg4PIoIlBwea7qyrLq6mq8+uqrTheju7u7o3Pnzhg7diyiohwPgjt27BiWLVuGnj174r777pNHNwgR4eOPP8b69etRWlqK+Ph4PPzww+jXr5/ctFHOnDmDjz/+WB4s4unpiU6dOmHUqFGIjY2VR7c5qqur4eHhAda2D2p6ejo++ugjXHPNNbjxxhvl5m0LuooUFBSQSqUS1nw7vTw9PemHH34gq9Uqufe3334jADR16lRJeGMYjUaaOXMmsSxLPXr0oMGDB5OXlxeFhIRQdna23LxR/v33XwJAarWadDqdw8WyrPgZlixZQhzHyZNoE/A8T5s3b6Y+ffpQbW2tGL5161YCQPPmzZPYt0VahQj8/PwoMzOTioqKxCszM5Pefvtt0ul05ObmRnv37pXc2xwR7Nq1i1QqFT3wwANkMpmI4zhavnw5AaAxY8YQz/PyWxpEEMF9991HpaWlDte5c+foueeeI5VKRWq1mtatWydPok1QV1dHQUFBFBgYKBFBeno6zZ8/n/7++2+JfVukVYjA39+fampq5NFERPTpp58SAJo9e7YkvDki+PrrrwkALVu2TAwrLS0lvV5PHh4eZDQaJfaNIYjgkUcekUeJWK1WeumllwgAXXfddW2yNKirq6OAgAAHEbQnWn3DeMCAAQCA1NRUedRFExERAZZlsXbtWlgsFgDAgQMHYDAYMGrUKGg0Gvktl4RKpcIjjzwCjUaDgoIC8Lx0s7Ha2lps2bIFL774Iu655x68++67OHz4MKxW6dY1JSUlWL9+PQoKCpCfn48vv/wS9957L1555RXs2rVL/CxyiouL8eeff+Lpp5/G3XffjU8//RQnT550aINlZWVh/fr1MBqN2L17N+bMmYO3334bqamp2LRpEywWCywWCzZt2oRt27aB53mUl5dj/fr1SEtLE9NJTU3F+vXrUVdXh4yMDHz++ee477778MILL2Dbtm0wmUyS5wIAz/M4cuQI3njjDdx999149913kZKSgsrKSqxfvx7nzp3f9v2yIVfFlaQpJcG6desIAD399NOS8OaUBOXl5RQUFEQMw9Bzzz1HaWlpFBISQgEBAVRaWio3b5SmlARERNu3bycANGjQIEm7huM4GjRokKTtAFsb4/nnn5ekIXwHH330EUVGRkrsWZalWbNmObSZTpw4QX5+fsQwjMTezc2NFi5cKKn6vffeewSADh48SJ6engSAGIahl19+WXIvAIqMjCSDweC0TfDkk08SAPrll1/EdOzf56233upQ5XzmmWdIrVZLbLVaLb322msEgD788EOJ/eWg1YrAbDbTxo0bKSEhgTw9PSklJUUS3xwREBEdOXKE/P39SavVkkajoW7dutH27dvlZhekKSI4ffo0derUiQDQBx98IIbX1tbSiBEjCAA999xzlJeXRyaTiVJTU2nGjBnEsiy98847or0gAp1ORxMnTqSMjAzieZ6ysrLotttuI4Zh6L333hPtz5w5Q+Hh4aTRaOibb76hsrIyMplMtH//fho6dCgBoG+//Va0F0QQHh5Os2fPprVr19JXX31FWVlZtG/fPvL19SVfX1/au3cvnThxgjiOa1QEAQEBtHjxYjp79ixVVFTQnj17qHPnzqTX6+ns2bOi/ebNm0mn09GgQYMoKSmJTCYT5eTk0AsvvEBubm6uJQL7XEB++fn50datW+W3NksEpaWltGDBAkkutWfPHrlZkxBE0LlzZ5o5c6bkuvXWW2nUqFGkVquJYRiaNWsWmc1m8d4tW7Y0mDMajUbq2LEjdevWTWxDCCLw9vamrKwsiX1RURGFhIRQjx49yGKxEBHR888/TyzL0ieffCKxJSJKTU0lNzc36tKli9gGEkQQGhpKVVVVEvuG2gSNiWDs2LHiexFYuHAhAaCffvqJyPY5o6OjSa/XO2RwFouFRo4cSbhCImj1bYLy8nJcf/31OHHihDzqoigrK0O/fv2wYMECDBs2DI8//jgA4KGHHoLZXH900cGDB1FYWCi7s3FOnz6N5cuXS65ffvkF27Ztw/Dhw5GUlITvvvtO0t7YvHkzeJ7HHXfc4bBXqVarxZAhQ5CamoqsrCxJ3B133IEOHTpIwgIDA9GvXz+cOHEC6enpAICdO3fCz88Pt912m8QWALp06YJ+/fohLS0Nx44dk8RNmTIFXl5ekrDmMH78eKjVaklYZGQkAIjf77lz53Du3DmMHj0a3bpJD/pTq9WYMWOGJOxy0ipE4O/vj5qamvMHdhOB4zgUFRXh448/Rl1dHcaNG4e8vDz5rU3mjjvuQHZ2Nt5880388ccfeO211zBw4EAkJSXh/vvvBxHhmWeeQXR09EU9584770RmZiYyMzORkZGBrVu3onfv3vDz88PgwYPRvXt3B0c/cuQIAODdd9/FTTfd5HDt3bsXAHD8+HHJfUIngT0Mw6Bjx46AXedBdnY2/Pz8oNU6njzJMAyGDBkCOOlsGDRokOR1c3E2OOjr6wsAqKurAwAUFRWBiBAfHy+zrKd///7yoMtGqxCBM1iWRVBQEB566CFce+21yM/Pxx9//CE3axIZGRnYsmULevfujXnz5kGv18PX1xebN29G586d8dNPP+Hjjz/GsWPH0LlzZ4SFhcmTaBBPT09ER0cjOjoasbGxGDVqFLZt24aoqCi8/fbbWLRoETjZKZCVlfVnr+Xn5yMtLc3h0uv16Nmzp4MT6/XOD9ETcl2DoX6TXavVCrVaLY7uyvHw8AAAh14l+fOai5B+Ywg9ZSqV7Kw0Gy3dU9cYzr+lVgTLspg6dSoAICcnRx7dJA4dOgSz2YyEhARJMe3p6YkffvgBKpUKc+bMQWlpKW688UaHnPti8fb2xocffgie5/Hyyy9jw4YNknihSvPjjz8iOTm5wWv8+PGS+yoq7E7vtKO8vP5IVqHK4e7uDqPR6NDVKnDq1CkAQHh4uDzqiuHpWX/CZXa24+masFWXrhStXgREhD//rD8wvLk/WmhoKADg7NmzDn31AwcOxH//+1/x9YQJEyTxzWXEiBF47bXXwDAMnn32WdTW1opxAwcOBJxUdwQ++OADLFiwAMXFxZLwDRs2OPTxG41GHDhwAH5+fkhISAAA9OjRA0VFRSgqKpLYwlYd2bFjBzQaDXr06CGPvmLExsbC3d0dmzdvFktGASJqdqnfHFq1CEpLS/Hpp59i06ZN8PHxwQ033CA3aRKDBg1CTEwMDh48iJ07d0ri9u/fj88//xwsW38Q9RNPPIH8/HyJTXNgGAYPP/wwoqKikJycjFdeeUV04LFjx0Kj0WDx4sUOjd+srCy8+eab+Oqrr8TcUuCvv/7C1q1bJWGbNm1CRkYGbrjhBnh7ewMApk2bhrq6Ojz55JOoqqqS2K9cuRKFhYW47rrrxJKjMdRqNXQ6HQwGQ4MlS3Pw9fXFggULUFJSgpdeekmsmvE8jy1btuCvv/6S33L5kHcXXUma0kUK2wCP0LUmcLFdpJ999pn4rKeffppWrVpFd999tzgB7pdffqEJEyYQbF2R9v3ZzmjKOAER0c6dO0mj0ZCXl5dkkt5LL71EKpWKQkJCaMWKFZSdnU3fffcdabVaUqlU9NZbb4m2Qhepm5sbeXt705dffknnzp0TB5Q8PDwoNTVVtOc4jm688UZiGIYGDBhAO3bsoIyMDHrssccItvGG48ePi/ZCF+mPP/4ohgnwPE/9+vUjAHTnnXfS66+/TjU1NY12ka5Zs0aSBhHRn3/+SQDov//9ryR85MiRxDAMBQQE0IMPPkgjRowglmUpLi6OcIW6SFutCDQaDSUmJtLTTz9Nhw8fdhgRvVgRWK1W+vPPPyksLEzynBEjRohjBeXl5TRr1iwaOXIkVVRUyJOQ0FQREBHNmjWLAFCvXr3EQUGe5+m7776jiIgIyfsJDAykX375RdLPLojg2WefpWeeeUZiP3bsWIkABKqrq+mNN94gb29v0ZZlWZo2bRqdPn1aYtuYCMj2WYWxFV9fX8rLy2sxEZSVldGSJUsoPj6e1Go1DRw4kH7//Xf68MMPCQB9/vnnEvvLwVUVwdWA4zg6cuQIrVu3jtLS0pwOVslHry8nZrOZjhw5QmvXrqWjR486nWQniODVV18lIqLc3Fzx/V+I6upq2r17N23YsIHy8vLk0U0mLy+PNm7cSCkpKQ7fWXPgOI7S0tKorq5OHkVERK+++ioBoE2bNsmjWhyXE0FbRC6C9kBdXR25u7tTWFgYVVdXS+KEEWMPDw8qKyuTxF0OWnXDWKH9otPp8OCDDyI/Px933HEHUlJSYDQakZycjBkzZmD37t2YPn06/Pz85Le2OIoIFK4KDMPgrbfewuzZs7FlyxbEx8dDr9cjISEBGzZswL333ov3339ffttl4aquMVZQgN26iszMTHTp0gVjxoy5oiPGiggUXB6lOqTg8igiUHB5FBEouDyKCBRcHkUECi6PIgIFl0cRgYLLo4hAweVRRKDg8igiUHB5FBEouDyKCBRcHkUECi6PIgIFl0cRgYLLo4hAweVRRKDg8igiUHB5FBEouDyKCBRcHkUECi6PIgIFl0cRgYLLo4hAweVRRKDg8igiUHB5FBEouDyKCBRcHkUECi6PIgIFl0cRgYLLo4hAweVRRKDg8igiUHB5FBEouDyKCBRcHkUECi6PIgIFl0cRgYLLo4hAweVRRKDg8igiUHB5FBEouDyKCBRcHkUECi6PIgIFl0cRgYLLo4hAweVRRKDg8igiUHB5FBEouDyKCBRcHkUECi6PIgIFl0cRgYLLo4hAweVRRKDg8igiUHB5FBEouDyKCBRcHkUECi6PIgIFl0cRgYLLwxARyQMVGobjgWoTwWQhWPn61ywLaFhA58bA042BSsla2hSKCJqAhSNsP2PFuhQLUgs4mK0ARwARgQhgGIBh6p1fqwK6h6lxQ08NRnRSy5NSaIUoImiAKiNhdbIF+zOtOJHPwWS9+K9Jp2HQI0yF0Z3VmBjvBr1GbqHQGlBEIKO0lrD5lAXL9ppQbWy5rybAg8WsAW4Y110DXz0jj1a4iigisGNjqhlvbjDCbJXHtBwebgxemKDDqM5KsdBaUERgy/3/u96Ag1lW8Ffg21CzwJCOGswbq0OAh1IqXG1cXgQn8jm88ncdCqsb/xoYBgj0YBDmwyLMm0XHQBZeOgbuGgYGC6HGBJwu5lBUzSO/ilBUzeNC32ykL4uFk90RF6R0J11NXFoEJws4PLaittHqDwOgf7QaDw3XonOwqr4nSG5kBwEgAs4Uc/homwmHsxtJHIC7G4Nv/+OBMB9FCFcLlxXB7gwrXvirDlZOHlOPigWmJrjhxl4axAaqwDbm+Q3AE5BZymFVsgV/HDU3WNXSqoF3p7ujd6TSpXo1cEkRJOdxePr3WhjM8ph64sNUmDtGh64hKnlUszmRz+G9LUacKnSuOi8tg//d5I5uoS33TIWm4XIiIAJuW1aDnApeHgUGwIR4DV6aqJdHtRivrjFg8ymLPBgAEBvA4rs7PcE0o9RRaD4uJQIrDzz9W12D9fQ5o3S4uY/bZZ32YOGAb/eZ8M1ekzwKADAkVo1FU9wv63tQkOJSX/WudAuO5jgKQK0C7h2ixYy+l1cAAKBRAfcN0WJ6b+fP2pdpxcFzju9R4fLh5Gdon5ishLc2Gp02Tsd11eDeIdpmNX6bA8MAT4/ROZ1bxBPw9iYjLM6bDgqXAZcRwS+HzahyMg0iIUKFuWN18uArwjPj9IjwdfwJCqp4/JHUQKtdocVx/AXaKWtPOG+MPjZSB53mChUBMrx1DOY1IMCG3q9Cy+MSItiVbkVOuWNv0MR4DeLDrm6XZL8OanRz0hV7pphrsDtVoWVxid6he3+oRVqR1KF89Ax+vc8T7m4XXwqU1hJOFzs6aOcgVbPmAhXV8Lj96xoYZe3hflEqvD/DQxqo0OK0+5KgqJqQ7aQU6BmmapYAAGD9SQvm/V7ncP3ZzHp8sCeL7qGOjeSTBTzK69p9HnXVafciKK7hnS6ImZroJg+6ZCyc43OayjAnPUVmjlBQ5ShghZal3Yvg0DnH6dEeWmBgtKPTXU3GdnV8PxwPnCpSRHC5afciSM5zrLsPjtE4Hai6mgR5sugU5NhAzix1fP8KLUsrc4WW55yT9kBsQOv82PGhju/rZL4igsuN47feziiqdhRBa527HxvgWBI4E7FCy9I6vaGFsPL1E9bkeGqb1yt0ufF3d3xfBjM5tGkUWpZ2LYIaJ9MkYFvEIocIuP/HWkxdWiNet35dg4eX18LopHfpcqBxLAjAUf28J4XLR7sWQUONX5OTSZpkq3qU1Jy/cit4ZJTwsDixvxw4K7UAwE3lWEIotBwNuEn7QN/AYJjR0jpz1hqT4/tSsQ2LWaFlaNdfr5qF042uruQAlMlKyKngkV0uvSoMjg6f5aQRHOPvpI6k0KK0axEAQIyTHpcLba/SkvybZsVd39Xg7u+l13dOVpY5mzDXMbDd/0RXnXb/DSdGOIpgx5krVMkHYOXq2yDyyyrL9I0WILXAsSRwNsNUoWVp9yIYFOu4XUpxDY+UAsdc92qyPd0Cs2zuEcMAXRQRXHbavQgCPVi4OfGjHw80b8bn5WJjiuMiGq2aQZSvY5tGoWVp9yII8WIR6ef4MU/kc61mEMpgIRx3Mscp3JuBv4fje1doWdr9N6xigVv6ujlsnVhcw2P5QTMEHTAAfHRyq8uDmxqYZpvKTQS8tcGAaifdo49fo3Ooyim0PO1eBABwfQ83hHg7ftRPdxjFZZcMAzw4Qis3uSz0jVIjxtbrc6qQw6ZTjg31KD8W/Ts4GdpWaHEcPaOdMq6b43kABODTHSaxWjSmiwZ3D768QugSrMJLE/VgAJg54H//GuUmAIAJ3R3fr8LlwWVEcEtfN6frf7efseAHWyOZZYD/DNRibFfNZamGBHuxeOU6vTiA9/E2I044mSod6MHgpj4tv/JNwTkuIwI/dwbzr63PgeV8ueu8M2rVwILr9RgZp3Zq21xCvVn8fI8nYmxrGdYcN+O3o449VAyA+eP08GqlM13bIy4jAgDo10GFHuGO/aU8AY/8UovNtro5wwD/d4M7nhyjA5j6I1qbS7A3g5t6u2HpbR7i7NXfjpqxaKPzalB8mAoDlLbAFcUltlyxp9pIuOeHWqfzh1Ts+U15BWrNBA/ZRLyfDpjxyQ5HJ541wA0PjXC+mRZsYvtqjwnfOpkyAVt37k/3eECrVkqBK8kl5HFtEy8dg2fH6ZzOzOR4YMm/Rrz4Vx1qbV2WcgEA9SWDfPt0hgE0jThvSS2P/3xb06AAAMBLV99lauXq/1e4MrhcSSCwMdWC/1trEMcJ5IR4sZjeW4M7Bjj2FlUZCZml9Vu5GCwENzUDnRroFKiCl2yswcIRvthlwpoTFlQ6mTlqD2MTqZ87gwAPFpG+DHpHqtEnUo0gr4YFpnBpuKwIiIC/jpvxyXaT03n8AqHeDKYkuGFIrBoxASqonZQgcmpMhNNFHHZmWPFXsgV15obTbwo+egYLrtdjQCvbJqa94LIiENh22oLX1xmbtNDGw43B2K4a9I5UoUuIShxh5ql+BPp4Hocd6VYcyXbc68gZeg0DC0cOM0qd4aYCPpjhgZ5OGvYKl4bLiwAAzpbymPdHHQqdNJYbg2Xq2wLcxd0GAOgUWH986+EcK95uoKdIjocbg1eu12NYR6VEaEkUEdiwcoRv95nx6xFzo9WjSyXQk8H03m74zwAtGAbILOUx69sauVmD+OgZvHKdHoNiFCG0FIoIZORW8Fi80YATBXyTqkhNgQHgoWUwIk6Nx0frJANhNSbCdR9XN9hAd4ZWDSy52QO9lKpRi6CIwAk81a9D/uekBT8dMF/Slieh3gxmDdRheEc1Aj2d9/Dc+nUNcp2cptkY7m71jeWhStXoklFEcAHMHOHQOQ4nCzikFHDILuNRWktO9yLSaRgEejDoFKRC12AWfaPUiA9zXNkm5/V1Bqw/6bio5kL46Bm8OFGPobGKEC4FRQTNgOOBKiOPahNQUUfQqhn4uddPkGsO29OteHF1XbMGyHQaBu/d5I4EpWrUbBQRtAJ4Ap5bVYfdGY7rCpqCTsNg0RS9sv6gmTQv61JoUVgGeG2SHmO6NG8NgdFCeG2tAfuzmiciV0cpCVoRRgth3h8GJOVam1U18nBj8P4Md2WblotEKQlaEToNg//d5I5BzZweUWsmPPpLHQ5lKyXCxaCIoJWhUQGvT9ZjbNfmVY1MVsKCNQYcyXZcsabgHEUErRC9hsHz43Xo10HtMGW7KZTXEV7+uw4ZJYoQmoLSJmjFWDjg2T/rmt3g1aqBj2/1UNoIF0ApCVoxGhXw3xsvpWoEvLC6DsdylRKhMZSSoA1gsBCeX2XAoezm9Rr5uTN4/2Z3dAxUSgRnKCJoI5ishHm/G3Akp3lVI40K+OJ2D8Q5OSbW1VGqQ20ErZrBm1P0GNW5eVUjCwc8t8rQ6nbjbg0oImhDeGoZPDdeh0Exzes1Kqji8dZGQ5NWvbkSigjaGF5aBm/e6I6E8OYNqJXUEPiLm7Xd7lFE0AZxUwOLp+kxuhlVI08t06xSpD2jiKCN4uHG4NnxOgyJvbiqUdcQldM9l1wZ5etow3hpGfzfDXrENvGES4YBHh/d8A55rooigjaOXsPgo1vdm7Qn0csT9U535nZ1FBG0A7x1DF6+To8+kc530vbUMnhqjA7jlTMPnKIMlrUj6syEh5fXIaOUA1H9Yp0wbxbv3uSOSF8lv2sIRQTtDKMVOJpjRZ2ZEOrNolMgq+xyfQEUESi4PEoZqeDyKCJQcHkUESi4PIoIFFwelxPB7t270b9/f0yZMgV8M2eSbdy4Ef3798dvv/0mj3JKXV0dRo8ejf79+6O8vFweLVJSUoL+/ftj7NixMBqbtl27wqXjUiKwWq2YP38+jh07hjVr1mDHjh1ykyZRXl6OQ4cOoaSkRB7lFI7jcPToURw6dAhWa8OLYsxmMw4dOoSkpKRmC1Th4nEpEWRlZeHQoUOYNWsW9Ho9nnzyyUadUsE1cCkR/PvvvzCbzZg0aRImTpyIo0eP4vjx43IzBRfDZURgsVjw0UcfgYjQr18/3HbbbWAYBn/++afcVITjOKxduxb3338/xo4di7vvvhu7d++Wm10RLBYLvvvuO9x9990YPXo0pk6dijfffBN5eXlyUwCAwWDAsmXLcOedd2L06NG4+eab8cEHH6CyslJuqkAuwr///ksAaPz48cRxHOXk5JBWq6XIyEiqrq6WmxPP8/TGG28QAAoMDKRevXpRly5dSKfT0d13300A6LPPPpPf5pSqqiry8fEhAFRUVCSPFsnNzSUAFBAQQLW1tWJ4WVkZXXvttcQwDEVERFBCQgJ17tyZ3NzcKDAwkI4dOyZJp7S0lMaMGUMAKDIykhISEqhTp06kVqtp4MCBVFdXJ7F3dVxGBLNnzyaVSkX79u0jsjn5pEmTCAAtXbpUbk4bN24kjUZDMTExlJWVRVarlYxGI/3666+k0+maLYL//ve/tGTJEqfX//3f/zkVwQMPPEAMw9Czzz5LFRUVxHEcGQwG+vXXXwkABQUFUWFhoWj/0EMPEcMw9Pzzz1NlZSVxHEe1tbX07LPPEsMw9NRTT4m2Ci4iAovFQrGxsdSpUycyGAxi+MmTJ8nNzY2uueYaiT3P8zRlyhTSarUOuSzZnLK5ImjKZS+CnJwc8vT0pOjoaKqsrJSky/M8vfbaa8QwDC1ZsoSIiGprayk4OJi6d+/ukONXVlZSfHw8XXPNNQ5xroxLtAn+/vtvZGZmYujQodBqz59Q3717d3Tp0gX79+9HYWGhGG61WpGSkoLY2Fj06tVLDBe49tpr5UFN5v3338dXX33l9Hr33Xfl5vjnn39QU1ODGTNmwNvbWxLHMAzuuOMO6HQ67NmzBwBw4MABFBUVYdiwYdDr9RJ7b29vnDhxAlu2bHGIc2XavQisViteffVVEBH0ej3ee+89vPvuu+Ll4eGB2tpavPzyy+I9HMehrKwMYWFhkrQEoqOjJa/PnTuHmJgYhIWFSa7XX39dYgcAt912G+69916n18yZM+XmOHXqFABg2LBh8igAgJeXF9zd3ZGdnQ0AOHbsGACga9euMkuFhmj3IkhPT0daWhoAYOnSpZg3b57k2rdvHwDgu+++Q25urngfEYFpYAW7PNxqtaKwsBAFBQWSq7q6WmLXHDiufrMsna5pa4NNJhMAQKVq2rpjBRcQwdq1a2EymTBv3jwcP37c6TV69GiYTCZs374dAMCyLLy8vFBWViZPDgBQUyM9fLtjx44wGAywtbHEa/HixRK75hASEgIAOHnypDwKsHWFGo1GhIaGAgBiYmIAoMGu07S0NBw7dkwUi0J9jtduMZlMFBMTQwDoyJEj8miRlStXEgAaOnQo8TxPHMfR6NGjSa/XU0lJidyc3n///WY3jC+2izQpKYkAUJ8+fchischvodWrVxPDMPTcc88REVFBQQFptVoaMmQIWa1WiS3P8zRgwADSaDSUnZ0tiXNl2rUIVq9eTQCoZ8+eZDKZ5NEiubm55ObmRizL0q5du4iIaPny5cQwDI0bN04yjpCVlUVxcXFXTAQcx9HYsWPJzc2Nli9fLrFPSUmhiIgIYlmWDh48KIZPmDCBPDw8aNOmTRL7FStWkEqlohtuuMFBIK5MuxbB3XffTQzD0G+//SaPcuDOO+8kAHT33XcT2XLNe+65hwDQiBEjaNmyZfTBBx9QWFgYde/e/YqJgIjo4MGDFBYWRizL0n333Ue//PILLVq0iMLDw0mr1dIHH3wgSWfPnj0UFhZGKpWKnnzySVq+fDk9//zz5OXlRbGxsVRcXCyxd3XarQisVisFBwdTSEgIVVRUyKMdKCkpIb1eT+Hh4WK1w2q10jvvvENarZYAEMMwdMcdd9D27duvqAjI1sc/YcIEgt14QufOnenw4cPE87zElmzVosGDB0vsx44d67R65+ooC+2bQEVFBfLz8+Ht7Y2wsDCw7NXrTyguLkZRURG8vLwQHh4OtbrxTbcKCwtRUlICX1/fq/7eWyuKCBRcHiVbUHB5FBEouDyKCBRcHkUECi6PIgIFl0cRgYLLo4hAweVRRKDg8lz1wTKDwYA1a9Zgz549OHXqFFQqFTp27IgBAwbg+uuvh6+vr/wWESLCiRMnsHnzZhw9ehQFBQXw9/dHr169MHr0aAwYMMDpvPqjR4/i33//RXx8PCZMmCCPvmisVit27dqF7du34+TJk6ioqEBUVBT69OmDCRMmoGPHjvJbrjqrV69GdnY2HnzwwQuOOrd75PMoriQZGRkUHBxMAEin05GPjw/5+PiIC9nDwsIoOTlZfhsREdXV1dGLL75IKpWKVCoVeXt7U0BAAPn6+pJarSYAdOeddzqsyyUi+uCDD8T4SyU/P5/GjRtHAEij0ZCvry8FBgaSl5cXMQxDAOj9998ns9ksv/WqMmXKFPLy8lLWGl/NCXRms5n69etHAGj+/Pl06tQpys3NpZycHEpNTaX58+eTSqWizp07k9FolNzL8zzddNNNBIBiY2NpzZo1lJ2dTSUlJZSXl0e7du2inj17EgDq378/1dTUSO5vKRGUlpZS165diWEYmjRpEh04cIDy8vKopKSEsrKy6NdffyUfHx9SqVR01113Ecdx8iSuGh9//DHNmTOn1YnzanDVRLBmzRpxZqOzH4LjOLrlllsIgGSqsLAfEMMwNGTIkAanBRuNRrr55psJtunR9gtSWkIEJpNJ3Atozpw5Da5XyMrKop49e5JGo6GVK1fKoxVaAVdNBG+99RYBoHfeeUceJbJ9+3YKCwujmTNnitOFKyoqKCIignx9fSV77TijsLCQAgICCIBk0UlLiCA5OZm0Wi0NGzbM6VRme9asWUMsy5K3t7dkWndmZiadOXNGYiuQm5tLqampDuLieZ7y8vJoxYoVNHfuXFq0aBElJSVJtpIhWyaSlpZGOTk5VFdXRz/99BO98sordOTIEeJ5nrKzs+nUqVMO753jOMrMzKRly5bRk08+SR9++CGlpaU5XdXGcRxlZWXR999/T3PmzKH//ve/tGfPniZNXW9NXDURCKu+IiIiqLy8XB5NZJvPX15eLqm37tq1i1QqFd12220S24Z4/fXXCQAtXLhQDGsJETzyyCMEgD788EN5lANWq5X69+9PAGjjxo1i+JAhQyg6OlpiK3DrrbeSTqejtLQ0SfiHH35Ifn5+BLt1Amq1msaMGSNZg1BdXU0BAQE0ffp0cTMuANSjRw+yWq1O2wQ8z9MTTzxBXl5ekvS1Wi3NmDHDoVq6YMEC8vT0lNiyLEtxcXGUkZEhsW3NXLUu0muvvRbDhg1Dbm4u+vXrh7lz52LVqlWSBeIqlQq+vr6SPXJ+++03cByHAQMGiGGNMWbMGKhUKhw8eFAe1WysVivWrVsHABg0aJA82gGVSoUpU6YAdluiNIfly5dj7ty5CA0NxebNm1FbW4u8vDy8+uqr2LVrF6ZMmeJwrsHOnTvx559/YtGiRfjss8/w6KOPOu0xIyK8++67+OijjzBw4EAcOnQIRqMRp0+fxgMPPIDff/8d8+bNE+337t2L119/HaNGjcKJEydgMplQUlKCRYsWIT09HXfddZe4U0arR66KK0lOTg7169eP3NzcJLlJr1696L333qMzZ844rIUdOXIkAaCff/5ZEt4Qx48fJzc3N+rbt68YdqklQWVlpfies7Ky5NFO+fXXX4lhGHrmmWfEsIspCerq6qhr167k5+dH+fn5cnN64IEHSKPR0KFDh4jsSgI0sAJOXhJkZmYSy7IUFhZGZWVlEluz2UxDhgwhT09PsQr6+eefE8uytHnzZoktx3E0e/ZseumllxyqaK2Vq1YSAEBERAR2796N5ORkPPPMM/Dz8wMAJCcn4+mnn0ZiYiKeeOIJyT1C7tLUvm2GYcAwDCwWizyq2fA8D7PZDFzE/j4aTf1p8s09D6G0tBTZ2dm45pprxO1V7Jk8eTIsFgt+/PFHSbhWq8VNN90kCXPG0aNHwfM8Zs+eLf4OAhqNBrfeeitqamrw888/AwACAgLA8zwefPBB7N+/X7RlWRZLly7F66+/3uS9kq42V1UEAODm5oYuXbrgrbfeQmlpKVJSUvD999/jzjvvBM/z+PTTTzF//nzx5JaAgADAyd4/DWG1WkFE8PT0lEc1Gzc3N/j4+AC2o5iaQnl5OYgI7u7u8qgmkZmZCYPBgLS0NDz55JMOl+Cce/fuhf34Z3BwcKMDjgIZGRmA7TgredpPPvkktm7dCgCiw0+cOBHTpk1Deno6Bg8ejNjYWNx222347LPPGtzzqLVy1URQXV3tsLkVwzDo1q0bZs2ahW+//Ra//PILNBoNPv/8cxQXFwMAxo8fDwBISUmR3NsQubm5sFqt6Nmzpzyq2ej1enTr1g0AkJqaKo92yqFDhwDbRl3NoaamBkSE7Oxs/P777w7Xjh07EBUVBR8fH4kI1Gq1w455zhDEnJSU5JD277//jkOHDiEqKgoeHh4gInh4eGDFihVYtmwZhg0bBrPZjF9//RUPP/ww4uLi8OWXXyptgguRkJBA/fr1u+AA0sSJE0mr1VJKSgqRrd9dr9fT4MGD5aZOEcYKvv32WzHsUtsERETLli0jADRnzhx5lAM1NTUUEhJCACS7XF9Mm2Dv3r3iturV1dUNXkIPkdAmiI2NdWhXkZM2wQcffEAMw9CPP/7okKb95ayeb7Vaqaqqis6cOUOzZ88We4mEPZxaO1etJAgMDMTx48eRlJQkjxIhIpSXl0OlUsHDwwMAEBoaij59+uDAgQP49NNPJbme0WhE3759cd999yEzMxPr1q3DqlWr4OfnJ5YgLcWkSZMQHByMH3/8EcnJyZK4HTt2oGfPnnj11VdRV1eHd955B4WFhZg4caJYgsBW8jlrIxCRuBGvQIcOHeDp6YnU1FR4eno6XJmZmfj4449x4MAByX1NJS4uDkSEAwcOOKTt6emJAwcO4IsvvhC3g9y7d6948o1KpYKXlxc6deqEpUuXYsGCBeB5HmfOnJE/pnUiV8WVYunSpcSyLPn5+dGePXscciuTyUSffvopsSxLgwcPlgwaHT16lPz9/Umv19Mvv/wi5mYlJSX0n//8h0JCQkiv11NAQABptVr6+++/7VJumZKAiGjJkiWk0WgoIiKC9u/fL36Gbdu20YQJE8jd3Z06depEWq2WwsPDqaCgQHL/9ddfTzqdjo4fPy4JX79+PanVaklJYDQaqX///qTVamnTpk2SQS6r1Up33nknsSxLP/74I1EzSoL8/Hzy8vIiDw8PsYdJoLa2lvr3709qtZp27NhBRETPP/88qVQqWrlypeS9cBxHL7zwAgGgVatW2aXSerlqIuA4TjzsQqPRUNeuXemFF16gN998kx5//HEKCgoilmUpIiKCSktL5bfT2rVriWVZYlmWOnbsSK+++ir9/PPP9MYbb4jbJAKgfv36ORThggjc3NzESXvOrtTUVMl9cnieF0+X0Wg0NGTIEHr33Xfp559/prlz50oGkh555BGHqt+SJUsItsmD33//PaWkpNDzzz9Per2eYmJiHAbLjh49Snq9nnQ6Hb366qtUVFRE6enpNHbsWGJZluLj45tdHSIi2rJlC2k0GvLz86NPP/2UKioq6ODBg9SrVy9iGIZuvvlm0eFPnjxJLMuSRqOhBQsWUElJCRUVFYlzvsLCwqiqqsruia2XqyYCsuUwX375JSUkJIjOIlwajYZmz55Np06dkt8mcvLkSZo9ezZ5e3tL7tVqtXTzzTfTa6+9Rnq9nsLCwujpp58WHUQQwYWuEydOyB/pgNVqpQ0bNtB1110nzl4VLn9/f5o7d654VFSvXr3o008/Fe81Go308ssvS+7z9PSkzz77jBYuXOggArKVMoMHDxZHgGGrf995552Um5sr2jVHBDzP0++//07x8fGSz6HVamnu3LkOmdG///7r8Nup1WqaPn06nTt3TmLbmrnq6wkE8vPzkZycjNLSUkRERGDQoEGSU2Uaw2Aw4PDhw8jOzkZYWBj69esndomeOXMGjz/+OGpra7F58+Ymjy80h9LSUhw+fBglJSXo2rUrEhISxOetW7cOr7zyCkaNGoW3335bcl9VVRW2bdsGrVaLUaNGXfBzExHS09Nx7NgxaLVaDBkyBP7+/nKzZsPzPE6cOIGUlBT4+/tj6NChjXbtpqWlITk5GRqNBgMHDnQ6jtGaaTUiuJwQEXieb/LA1uVCGOtQtkJsXbiECBQUGkPJkhRcHkUECi6PIgIFl0cRgYLLo4hAweVRRKDg8igiUHB5FBEouDyKCBRcHkUECi6PIgIFl0cRgYLLo4hAweVRRKDg8igiUHB5FBEouDyKCBRcHkUECi6PIgIFl0cRgYLLo4hAweVRRKDg8igiUHB5FBEouDyKCBRcHkUECi6PIgIFl0cRgYLLo4hAweVRRKDg8igiUHB5FBEouDyKCBRcHkUECi6PIgIFl0cRgYLLo4hAweVRRKDg8igiUHB5FBEouDyKCBRcHkUECi6PIgIFl0cRgYLLo4hAweVRRKDg8igiUHB5FBEouDyKCBRcHkUECi6PIgIFl0cRgYLLo4hAweVRRKDg8igiUHB5FBEouDyKCBRcHkUECi6PIgIFl0cRgYLLo4hAweVRRKDg8igiUHB5FBEouDyKCBRcHkUECi6PIgIFl0cRgYLLo4hAweVRRKDg8igiUHB5FBEouDyKCBRcHkUECi6PIgIFl0cRgYLLo4hAweVRRKDg8igiUHB5FBEouDyKCBRcHkUECi6PIgIFl0cRgYLLo4hAweVRRKDg8igiUHB5FBEouDyKCBRcHkUECi6PIgIFl4chIpIHKlx+eJ4Hz/MgIgg/AcMwYFkWLMuCYRj5LQqXCUUEVxir1Yry8nLs27cPe/bsQUZGBioqKqDVahEeHo7evXtj5MiRiI2NhZubmyKGK4AigisEEaG6uhr//vsvfvrpJxw7dgwlJSWoqamBxWIBy7LQ6/Xw9fVFbGwsJk2ahGnTpiEmJgZqtVqenEILoojgClFeXo6vv/4aS5cuRWZmJsxms9xERKVSwdfXF5MmTcKzzz6Lrl27QqVSyc0UWghFBFcAo9GIpUuX4p133kFubi54ngfLMnB3U0GnUUGtYsETwWzlUGfiYLbyAABPT09MmzYNzz77LOLj45Wq0WVCEcEVoKqqCvfccw/++usvWC0WaN1U6BLuhfEJYejfyR9BPjoYzFak5lZhS3Ih9p8uRVmNGTwRvLy88PTTT+Pxxx+Hv7+/PGmFFkC1YMGCBfJAhZbFarUi6ehhpKceh04NDIgLwCszeuLahDDEhnggwFuLEB8dukZ4Y0BcAAiEs0U1qDVxsFgsKCwsxIgRIxAWFgaWVXq1WxpFBFcAtYpBjL8anlWpGBDjiTuv6YjOYV7Qauq7Qhlb96iKZeCpU6NTqBdKq804k18NC8fDaDQiPDwciYmJ0Ol08uQVLhElW7mMEBEqKiqwf98+nEnag2u6+2Lm8GjEBntAxTqv3zMMgxBfPa7pGYwOQR4AALPZjF27dqG6ulpurtACKCK4jFitVqxbtw6PznkCD774Hn7dcQYmKw/2Ag1clgHio3wQ7q8HbOmkpaXBaDTKTRVaAEUElxGr1YpVq1bhxIkTyC+txq+7s1BabUZTeiK89Rro3eq7RYkIVVVV4DhObqbQAigiuMxwHAciAs8TymrNKK02gecvLAODmYPZen46hV6vV7pILxOKCC4jLMuiQ4cO8PCor9tzHHD8XIU4DtAQBCCjsAZFlQbANngWExMDrVYrN1VoARQRXEZYlkW/fv0QEBAAALByPDYdK0BOaV2jVaIagwU7UoqRVVwLAFCr1Rg4cCA8PT3lpgotgCKCy4hKpcLIkSPRtWtXaDQa8ERIyqzAN/9mIKekDlaOJGIgAirrzFh9IBfrDuehotYCAAgODsa4cePg7e1tZ63QUrTbcQIiAsdxMJvNMJvNsFgs4DgOPM/X981fgfo1wzDw8vJCbW0tkpKSUFlZCbOVQ1ZxLbJK6mDleWjVLFiGQVmtGccyy7FyTzZW7jmHjOJaEAEajQYzZszALbfcAl9fX/kjFFqAdjltgohQWlqK7du3Y/v27cjIyADP8wgODka/fv0wfvx4dOzY8YpNSsvPz8eiRYvw1Vdfoba2voqjUTEI9tEhwFsLnUYFjiNUGiworDCixmAB2UQ0ePBgLFq0CMOGDbti79floHaGwWCgdevW0cyZM6lz587k6+tLGo2G1Go1eXh4UFRUFI0ZM4Y++eQTqqioIJ7n5Um0OBUVFfTUU0+Rh4cH2dq9TboYhqFu3brRpk2byGq1ypNVaCHalQgMBgOtWLGChg8fTu7u7g5OJVwajYbi4uLopZdeoqKiInkyLQrHcbR69Wrq27cvsSzr8F6Ei2VZcnNzI09PT/L09CS1Wk0ASKfT0f3330+ZmZlXRLCuSLtpExAR9u3bh7fffhu7d++GyWQCwzBQu2mh0eqhdtOCValAPIHj6ld3ZWRkIDAwEAkJCZelqsHzPHJzc/H6669jz549sFqtDu0RlUoFLy8vhIeHIyEhAdOnT8fgwYNRVFSE0tJSWK1WnDt3DqGhoejWrRu0Wu0Vac+4FHJVtFVKS0vppZdeEksAhmUpMLYzjXn0OZr90wZ6+NetNP2/H1PHIaNIY7NRqVQ0YcIEOnnypDy5FqGkpITmzZtHQUFBYvUmJCSEfHx8xBIgPj6efvvtNzp9+jRlZ2dTaWkpFRYW0quvvirex7IsdenShdasWUMGg0H+GIVLpN10kZ49exa7du2CwWAAGAbeIeEYcf8TGDTrAUT06ovQ7j3RY+JUXPfMQkT06ANWpQbHcUhLS8POnTvlyV0yZrMZ//zzD1atWoWSkhIwDANfX19cd9114nRolmURERGBa665Bp06dUJkZCT8/f0RHByM22+/HWPGjIFOpwPP88jIyMAHH3yAU6dOgecbH2xTuDjajQgKCgpw6tQpEBFYVoXuYyah09BroPf2te3ewEKj0yMgpjP6TLkNbvr6yWnFxcVISkqSJ3dJEBFSUlLw/fffIz09HUQEd3d3XH/99ejcubNo5+npia5du8LPz8+hitOpUyfMnj0bPXv2hEqlgtVqxY4dO/Dtt9+ioqJC3KFC4dJpNyIwGAyoqqqqf8EAflHRcPetH6m1R6XRIDA2DqxaA9iWPubn56O8vLxFJqgREfLz8/HFF19g37594HkearUa/fv3x5w5c5CdnQ2TyQQA8Pf3R2JiojwJwNZWGDZsGO666y7ExMSAYRgYDAb88ccf+OOPP1BXVye/RaGZtBsRMAwjadxaTUbwVsfF7EQ8zIY6ENVXKaxWK06cOIEvvvgCmzZtwsmTJ1FRUdHsKkdtbS3++OMPrF27FpWVlQCAqKgo3H///YiOjkZKSopEBAkJCbIUzqPT6XD77bfjhhtugKenJ4gIOTk5+Oijj3Dw4EFYrVb5LQrNoN2IwMfHB6GhoQAA4nlkJx1EaVYGyN6ZiWCprUPm/l2w2u32cOrUKTz//PO455578Nxzz+Hzzz/HunXrLloQHMfh4MGD+Pnnn3H27Flx9ueMGTMwevRoFBQUIDs7GxzHQaVSITw8HHFxcfJkJPj5+eGee+7BwIEDodVqYbVakZKSgo8++giZmZlKtagFaDddpFarFSdPnkRKSgqIJ9SUFoE4DnpfP+i9fUE8oSIvG6n/rsXh339AbWmxrYOmHiJCbW0t0tPTsX37dmzbtg1JSUnIyMhAYWEhTCYT9Ho9dDqdQ/1dID09HZ9++ik2btwIi8UCjUaD8ePH4/HHH0d4eDj+/vtvbNq0CbW1tWIbYfz48Y3uKyQ0qAMDA3HkyBGUl5fDYrGgqKgIWq0Wffv2VbpNL5F2IwJ3d3dUV1fjyJEjqKqqgtVkQvGZUyjPyURF7jnkHDuElM1rcfTPn1CZnwsiHlqtFl26dEFwcDDq6upgsVjA8zysVisqKytx+vRp7Ny5E3v37sWJEyeQnp6OgoICmM1muLu7S5yvvLwcP//8M7755htUVFQAAOLj4/H8889jwIABMJvNWLp0KY4dOwaLxQI/Pz/cdddd6NWr1wXHKNRqNaKjo1FXV4fk5GTU1NTAYDCgoKAAkZGRyr5El0i7EYFGo0FgYCBqamrEpYicxYyy7LPIPLgbZ/fvQMGp4zDV1ohViMDAQDz66KO46aab0L17d4SEhIBhGNTW1or1bbLtHHfmzBns2rUL+/btw7Fjx5CSkoLc3FyYzWZoNBrs3r0bH330Ec6cOQMACAgIwIMPPoipU6fC09MTRUVF+N///of8/HwAQEhICObMmYPQ0NAm5eLCmoLc3FycPHkSVqsV1dXVKCwsRI8ePZSdKC6BdiMC2NoF0dHR4DgOWVlZF1yYrtFo0KdPH8yaNQvDhw9H//790b9/f/Tu3RuhoaEg27JGi6V+SjMAVFdX4+zZszhw4AAOHDiAgwcPYt++fVi3bh0OHTok9gbddNNNmD17NiIjI2G1WnHo0CH89NNPqKqqgpubG3r37o277767yWsEGIaBh4cHgoODcfz4cRQUFMBisaCsrAxWqxWJiYnKLNNm0q5EwDAMAgICEBcXh8rKSqSnp9cPntmqSxEREejevTuqqqrEKdZlZWWIiIhAr169EBAQgE6dOiExMRG9e/dGv3790KdPH0RERIglhLCTNMdxqK6uxrlz53D8+HGxwQtbKTB58mQMGjQIOp0OFosFq1evxpYtW2AymeDp6Ynp06dj9OjRF7VajGVZBAQEwMfHBwcPHkRVVRVMJhOKiorg6+uLhIQEuLm5yW9TuADtSgSwCcHb2xtJSUnYu3evKIIHHngAc+bMweTJk1FTU4PTp0/DYrGgsrIS1dXV6NWrF4KCgsAwDNRqNfz9/UVB9OvXD0OHDsWgQYMQEhICnudRVVUFIhJ7juS9NHl5eThy5AiysrJQV1eHVatWISUlBRzHISAgAI8++ig6d+7caKPYGRqNBpGRkTCZTDh8+DBMJhNqampQWlqKyMhIxMXFKdWii0U+j6I9UFNTQw888IA4E5NlWfr777/JYrEQx3G0Y8cO6t+/vzh/x9fXl5544gkqLCyUJyXC8zwZjUbKycmhgwcP0s8//0wzZ84kNzc3MR35pdFoKDg4mLp160a+vr7EMAwxDEPdu3en7OzsZk+P5jiOUlNT6ZZbbiGVSkUASKvV0rRp0ygpKUlurnAB2l1JAADZ2dlYuXIlUlNTwbIsoqKicO+99yIyMhIMw8DPzw+enp7YuXMnjEYjTCYTiouLERwcjB49ejjNnYUSwtvbG6GhofDy8sLWrVtx8uRJcBwnxgl1fCKC1WpFbW0tSkpKxD2DhEE9lmVBRPDw8IBWq72o3h2htPP390dSUhJKSkrEblO9Xo+ePXs2ua2h0A6rQwCQnJyMVatWITc3F2q1GoMHD8bUqVPFBe9ubm4ICQmBwWDAsWPHYDabUV1djZqaGsTFxSEqKqrRHpvq6mqsW7cOX3zxBaqqqsAwDOLi4jB37lzcc889CAwMhMFggMFgANlOorGvLhkMBhw9ehSbNm3C0aNHER0djfDwcLEaQ0SNPh+23qKgoCB4enpiz549qKurg9FoRE5ODiIiItCtWzenYlZwpF2KYOfOnfj7779RUVEBjUaDqVOnYuTIkWLuKPS0REVF4eTJk8jKyoLVakV+fj5YlkXv3r3h4+MjTxawjQofOnQIL7/8MjIzM8HzPHx8fHD77bfjkUceQY8ePTBkyBBMmTIFI0aMgL+/P7KyslBTUyOmQUQwGo0oLy9HTk4OGIbBuHHjAABlZWUoLS0VSw7h+CZnCGKurq5GcnKyKOaysjJ06tQJHTp0aPBehfO0OxHwPI9//vkH69atg9lshk6nw3333YfExERJz4lQpdDr9Thy5IjY1VhQUICAgAB0797doeeGiJCdnY13330X27dvh8VigVarxYgRI/D000+Lp8ro9Xr4+PggMjISfn5+2L59OwoKCgAA3t7eCA4OhlqtFqtDAwYMwJgxY5CWlobXX38dixYtwsaNG5GRkSEO4BER1Go1VCqVWEoIYvbz80NWVhbOnj0LjuNQWFgIAIiOjobRaERhYSGKi4vrF/qbzQ7puDrtTgTl5eVYtWoV9u7dC9jm3jz66KPiTEx71Go1goKCYLVaceDAAVgsFtTU1KCsrAxdunRBhw4dJHX1uro6fPvtt/j+++9RWVkJlmURHx+Pp556CsOGDZNUP4Rn7d27Fxs2bEBZWRnUajUmT56Mp556ChEREfD29sbgwYNx7733IiwsDBs3bsT777+P7OxsnDt3DgcOHMBff/2FnTt3Ij8/X6wm2QuCZVkEBwdDp9Ph6NGjopgzMzORkZGB33//HZ988gm+/fZbbNiwAWfOnIGbmxu8vLzg7u7u8J24JPKWclvn2LFjNGXKFGIYhliWpSFDhlBqaqrcTITneUpOTqYZM2aQTqcjAKRWq+muu+6ikydPEsdxRERkMplo8+bN1KVLF3GtcHBwMC1YsICMRqM8WSLbmue5c+eSn58fwbZe+IMPPqCqqioyGAxUXV1NtbW14jNWr15N8fHxDj1OKpWKtFot+fr60uDBg2n+/Pm0evVqOnnyJBUWFpLRaKSSkhJ68803KTAwkGBbxaZWq0mlUom9UizLklarpeDgYHriiScoJSVFWbfcHnuHDh8+jFWrVon1+5EjR+L6669vcOMqxjZBzdfXVxyJ5XkeWVlZ8Pf3R48ePaDX65GamooFCxYgKSkJFosFOp0OEydOxFNPPYWgoCB5soCtVPriiy9w8uRJAICXlxeeeOIJdOrUCW5ubnBzc4NGoxFzY39/f7HxrtVqQUQwmUzgOA4cx8FoNKKgoACHDh3CP//8g507dyIzMxOVlZVgGAYajQbp6ek4d+4cYKsa2jfIyTbIV1dXh7S0NBQWFortH5cuEeSqaOssXbqUQkJCxBz9tddeo4qKCrmZA5WVlfT222+L63oBUI8ePWjVqlVUUFBAzz//PHl7e4vpJiYm0ubNm8lisciTIrKVMHv27KHevXuL9/Tp04cyMjLkphJ4nqfy8nL6999/6bXXXqMbbriBevXqRYGBgeKYgHAJObyHhwf17duXJk+eTDExMWI8q1KRR0AI+cd0pcCO8eQd1oHUOr0YHxgYSM8++2yTvp/2TLsqCYxGI9auXYsNGzaA53no9XrMmjULffr0uWA/vFarRWBgIEpKSpCamgqr1YqKigpUVlYiPz8fv/zyC/Ly8sAwDCIiIvDoo4/ixhtvdGg827Np0yasXbsWVVVV0Ol0mDx5MsaNGydu0OsMhmGg0+nQoUMHDBs2DBMnTkTfvn0RExODgIAAeHh4gOM4GAwGcbRaONLpzJkz4gxWlUaDgI7d0XHYBMQMHYfwxCHwjYwBy7KoLSkEz1lhMBhQWVmJgQMHXrBbuD3TrkSQl5eH1atX4/Dhw4BtRdfMmTMl63obw8/PD97e3khLS0Nubi6stu1Ojh49isLCQnAcBw8PD9x888147LHH4Ovr26DjcByHX375RexF8vDwwIMPPtjk+T2MbVBNr9cjOjoagwYNwjXXXIPevXsjLi4OERER8PT0hMViQV1dnUPVxyciFp1HT0Zgp3hodO5QqTXQefnCKzgcdRWlMJQVg7dtGx8TE4PBgwc3+FnaO+2qE1lYuSXQqVMnsY7dFFiWxaBBg3D77bcjKioKsJUuJSUlMJvNUKlU6Nu3L+666y4EBgY26jQlJSXIyMhAXV2d2O5ISEi46DPHGIYBy7LQaDQICgrCqFGj8Pjjj+Ott97CwoUL8fzzz+P+++9H7969Jff5x3SBd2gHsCq7HiuWhdbLF5G9h0LlVl+CVVVViZsBuCrtWgRxcXEXJQLYZptOnjwZN9xwg2RqstAV+fDDDzdpIcypU6eQm5srdmd26dIFgYGBF7yvKTAMA39/fwwfPhwPP/wwFi5ciBkzZki6aN3cvURHt4dhVdD7BIBh69+HMLXDlWk3IuB5Hnl5ecjLywNsjtKpU6dmnf0bHh6Obt26wcvLSwwTHK9fv37Q27ZraYyUlBTxvajVavTu3Rvu7u5ys0tCKCVg2+fIfnTYXFsNzux4xhlxHOoqSkF8/bRvtVrd4u+rrdFuRCDM7a+trQXDMPDx8UFUVFSjjVBnEBHOnDmDffv2oaysTAzneR6FhYVYv379BRfrmM1mpKamoqioCLBNf05MTGySeJoCz9cf63r27Fl8//33eOaZZ7BixQrJ7hNlWadQlX8OvNUC2Ko6PM/BWFWOvKTd4Mz1O174+Piga9eujVbt2jvtRgQlJSXi7gsMwyAmJgbBwcEXPXempqYGK1euxPr16yXVBCJCWVkZvvjiCxw4cKDBPYqICLm5ucjMzBTn/4SEhIhjA5eK1WpFVlYWPv30UzzyyCN45ZVX8OOPPyIlJUXsLQKAqvxsnN66GvknDsJUWw3ObEJFdjrObP8bxWnJ4Cz1u22EhYVh5MiRLi2CdjNOsHfvXho6dCgxDEMqlYqmT59Ox48fl5s1isVioT/++IMSExOJZVliGIY8PT0pKiqK9Pr6/nWdTkczZsygrKwscaTXHo7j6J9//qG+ffuK/fFTp06l06dPy02bjMVioZqaGjpw4AC99tprNGrUKIqMjCSNRiM+Q6VSkU6nI51OJ45osyoVufsHkX+HzhQQ2428QiNJra3/HAzDUGhoKC1YsICqqqrkj3QpLi6bbKUQEYqLi3Hu3DmxJOjUqVODI7nO4Hkex44dk+Sqer0e06dPx4svvoju3buDZVmYTCZs374dX3755fkd72TpCF2sAs1Z/yuMFpeVlWHbtm14+eWX8dhjj+Hjjz/Gjh07kJOTA6vVCo1GAz8/P/Tv3x/z58/HnDlz0KlTJ6jVavAch7qyYpSdO43Ss6moLsiB1WQAwzAIDg7GjTfeiPvuu++iq4ztDrkq2iJGo5E+//xz0mq1BID0ej198sknZDab5aYNUlJSQi+++KJ4kAbDMDRw4EDatm0bVVVV0dtvv03+/v71OSzLUseOHem3334jk8kkSaeyspIeffRRcXRXpVLRypUrL+q9WK1WqqyspH/++YduvfVWio6OJr1eTwzDSHJ+Dw8PGjBgAH300UeUlpZGVVVVVFZWRl9//TX16dOH3NzcxBJNuI9hGPLz86OXX36ZsrOz5Y92SdqFCPLy8mjevHmi48XExNAff/whN2sQg8FAy5cvp86dO4vOEhoaSp988glVV1cTz/OUmZlJt956q7j1u0ajoXHjxlFSUpJkEtrx48fphhtuEMXSrVs32rNnj+R5zuA4jmpra+ns2bP0/fff0/Tp0yk6Oprc3d1FJ2YYhnQ6HYWHh9PkyZPpm2++ofT0dKqqqhKrZjzPU3V1NR06dIgWL15MU6ZMkUzK02g0NGTIEEpLS3NanXNF2oUIkpOTacqUKWJdePjw4bR79265mVOsVivt2bOHxo0bJ9ax3d3d6cknn6SMjAzRwc1mMx06dIgGDhwo2vn6+tJjjz1GZWVlot3ff/9NvXr1Eh3u9ttvb7Q9YLVaqaKigo4fP05ffPEFXX/99RQaGkparVZ0fpZlycvLizp16kQzZ86kFStWUHZ2NtXW1jY4C9RqtVJVVRUVFBTQgQMHqHv37uJco9jYWGUGqR3tQgRbt26l+Ph40Wluu+02OnPmjNzMAZ7nKTs7m+bOnSupvowdO5b27t3r4CQmk4m++eYb6tChg+hQnTp1ok8//ZSys7MpMzOTFi5cKE6d1uv19O6771JZWZkkHbLl/OXl5ZScnEzvvvsu9evXj7RareRIJ8H5O3fuTA8++CDt3LmTqqqqLnqBfmVlJU2bNk1s3AcGBtKqVasuqorWnmnzIrBarbRixQqxLs+yLM2fP58qKyvlpg7U1NTQ559/TuHh4aLjxcXF0bfffkt1dXVycyIiKiwspCeeeEJ8nlqtpk6dOtGECROoe/fu5OfnJzqyh4cHff7551RZWSkKymg0UmZmJm3YsIHmzp1LCQkJ5OXlJe6MIZQg4eHhNHLkSHrllVdo7969VFZWRmaz2UGYTaG2tpYWLlworjXw9vamRYsWNfgZXY02L4LKykpavHix6EA+Pj70/vvvX7C+azabaffu3TRkyBDRaf38/OjZZ59tdOsVq9VKhw4domuuuUaypYtarZY0QAWBjBo1ilasWEF5eXmUmppKv/76K91///3UoUMH0uv1kpxfq9VSTEwMTZo0id555x06fvw41dTUXHTOL8dsNtP69espNjaWYCuhHnvsMaqpqZGbuiRtXgRZWVn04IMPio4knAHWWI7JcRylp6fTnXfeKfYoubm50bRp0+jo0aNycwdKS0vpzTffbPSETPsrPj6eXnjhBbr55pvJ39/fobdGp9NR586dafr06fTFF19QdnZ2o+//YuF5noqKimjSpEnk5eVFYWFhtHjxYuX8MxttXgRJSUk0duxY0anGjRtH+/bta9SJSktL6e233yZPT0+xbt+rVy9auXLlBXNdjuPo2LFjNHbsWLEkUDEMRbm707jQULqpQweaEBZGMZ6epBEGrWzHs9qXFgzDkLe3Nw0cOJAeeeQRWrlyJeXk5JDZbL5gKdYcOI6jjRs30ksvvURvvfUWZWRkXJbntEXatAh4nqetW7dKVlPde++9lJubKzcVMZvNtHr1aurWrZt4T0hICL322mtUXl4uN3egtraWPv74Y7FNoGIY6uLtTQsTEmj3+PF0evJk2jdhAr3dpw8l+vqSSlZFYlmWfH19adSoUfTcc8/Rhg0brtih4mT7zq7Us9oKbXrE2GKxIC8vD6WlpYBtdVhkZCQCAwPlpoBtoUtmZia++uorZGRkALbD88aOHYtZs2Y1uNeQPXV1ddi+fTvMtpNugnQ63NqhA26JjkaUuzt0KhXC9XpMj4rCjA4dEGi38kxYl/zss8/izTffxEsvvYRrr732iq3x5W3nKn/77bf46quvcOzYMbmJS9KmRVBbW4vTp0+LDhkYGIioqKgGJ6pVVFRg6dKlohOzLIuePXvivvvuQ2xsbJMc0Ww2Iz09XZyxGeXujuvCw6GTrRPQsCxGBAcjwjZNmWEYuLu744knnsATTzyBwYMHw8PDo0nPbCnq6uqwYsUKvPLKK3jppZfwySefoKbm/HkNrkqbFkFNTY3kXN/Q0FBxRZgcg8GAf/75BytWrBAP1AsKCsKsWbMuamkhEUlOjtSxLAK0WsjvZgD4ublBazeLVaPRICYmBnq9vsnPa0nMZjOOHj2KgoICFBQUYNeuXQ6zT12RNi+CtLQ0cVpzWFiYUxEQEY4dO4avv/4aeXl54HkeXl5emDRpEm688caLmufPMAy8vLxEJ66xWpFdVwdelpsSgHyDAbW2EoNlWfj7+7fIyrLmolKpEBISIk4vr6iowOHDhxucFu4qtFkR8DyPsrIyZGVliTNHw8LCEBkZKbEjItTU1IjrAISZl7169cLcuXMRHh7e5FyZiFBeXg61Wi3ec66uDqtzclAncyQjx2FzQQFybKWGcCrO1VzF5ebmhl69eonLMKuqqnD06FFFBPKAtoKwgVRtbS2ICF5eXk5XktXV1eGrr74ST41kGAbR0dF49NFHm3zgndVqRVFREX766SfMmzdP3I4dACrMZvyWnY0PTp3C4bIy5BuNOFZejo/T0rAyOxuVtqOeiAiVlZUoKioS2zBXGjc3N3EzMcZ28s6pU6cuuFKu3SPvLmor5Ofn09y5c8XBrtjYWPruu+8k3X8Wi4XWr19PiYmJYp++p6cnPf/881RcXCxJzxk8z1NdXR3t37+fHnroIerYsaNkIYvY5w+Qj0ZDcV5e1MPXlzp7eZGfRiPpHmUYhnx8fGjq1Km0fft2MhqNV7yrkud5OnfunGQSYI8ePS44rtLeabMlQU1NDY4fPy7myIGBgYiOjpbY5OTk4JtvvhE309JqtRg8eDD+85//XHABvsViQW5uLpYuXYqHHnoI33//Pc6ePQuLxQKVSgUfHx+EhYVBp9OBAFRaLDhTXY0TFRU4XV2NcosFHJG41SIAVFZWYt26dXj66aexevVqVFZWXtGeGaGHqk+fPmIPWlVVFU6dOiU3dSnarAiqq6uRmpoKnufBMIwoAqGuXlVVhe+++w5bt24Vu0Pj4uLwzDPPIDY2tsG1xxzHobS0FBs2bMC8efPw9ttv49ixY+J6Yz8/PwwfPhyLFy/GsmXLcNtttyEqKgpeXl7QaDRgWRZqtRpeXl6Ijo7GzTffjBtuuAERERFgWRZGoxFJSUliF2VWVtYVrZPrdDoMGDBA3DmvsrISaWlprt1DJC8a2gLCqK8wd8fNzY3uu+8+cS6M0WikX3/9VVwrDNsO0m+//TZVVVU1WPTX1dXR8ePH6eWXX6YuXbpI5vRrtVrq0KEDPfXUU5SUlER1dXVksVgoLy+PVq1aRQ8//DCNHDmSEhMTafjw4TR79mz69ddfKTc3l86dO0dvvvkmxcXFidUQlmUpJCSE7rvvPkpOTr5i83isVisdPHiQIiIiCLap47fddhtVV1fLTV2GNikCYbmj0B4ICQmhN998U9wcNzk5mSZPnnx+bo9KRXfccUeDm+FarVYqKCig5cuX05gxYyRLGRmGIX9/fxo/fjytWrWKKisrJXNueJ4nq9VKBoOBampqqLq6mmpqashgMJDFYhGnKVRXV9Off/5Jw4YNE8XLMAzp9XoaPXo0rV27tknTv1uCvLw8GjRokLiGYvTo0XTs2DG5mcvQJkVQVFRE9913n+jkPXr0oJUrVxLHceIO0sJ6YJVKRb1796YtW7Y4LCLhbTtAb9u2jR5//HGKiYmRNHy9vb1pwIABtHDhQkpNTb2kxizP82QwGGjPnj00a9YsCgoKEkspjUZDiYmJtGTJEsrJybnsE9vKysro3nvvFTOR+Ph4WrlypdzMZWiTIsjKyqIRI0aITjRixAg6duwY1dXV0bJly6hLly7i7NDIyEj65ptvHHJZs9lMZ86coY8++ogGDBggmeGpVqspKiqK7rnnHtqxY0ejyxgvFqvVSllZWfTss89S586dxdyYYRiKiIig+fPn08mTJx0W8LcktbW19O6774qTAIOCgmjhwoVyM5ehzYmA53k6cuQIRUdHE2x165tuuonKy8tp9+7dNH78eNGZPTw86PHHH6f8/HzJ/QUFBbRq1Sq66667yN/fX7Kwxc/Pj6699lr67LPPKDc3t8Wc3x6e56myspK+/PJLGjRokLgInmEY8vLyopkzZ9KmTZsu26IXq9VKa9asEUtLtVpNd999t8uuNGtzIjCbzbR8+XJxqaCnpyc9+eSTdO7cOZozZ45ky5Rx48bRrl27xOpFXV0d7d27l5577jnq1q0baTQaScM3MTGRnnvuOTpw4AAZDIbLIgB7hG1Vpk2bJq5LFt7LqFGj6Ouvv6aioqLL8j6OHDkibggAgMaPH0+pqamX5VmtnTYngrq6Onr55ZfFU2MiIyPpjTfeoM8//5w6dOgglg5xcXH0448/Uk1NDfE8T2fPnqUvv/ySJkyYIFkRplKpKCwsjG677Tb67bffmrSmoCWxWCyUnJxMc+bMoejoaFGUwmdYuHAhnT59+oKLfS6WjIwMmjlzpvg9JCYm0po1ay57e6Q10uZEUFVVRdOmTRMP2evatSvNnz+fBg4cKFkr/Oqrr1J+fj5VVVXRP//8Q/fffz9FRkY6rOkdPnw4vf/++5SWltbijnYxZGdn05IlSySj2wzDUEBAAN1///20f//+Fm0nFBcX08KFC8XvIiQkhJYsWdLg8VPtmVYvArPZTKmpqfTLL7/QW2+9RU8++SRFRESIzhwaGkpDhw6VbJkybdo0SkpKoqNHj9KCBQuob9++omgEm9jYWJo7dy79+++/VFtbK3/sVaGsrIx+/fVXGjNmjOT9enh40HXXXUd//PFHi/XnG41G+v3338XvTaPR0OOPP37Z2iGtmVYrAqvVSqdOnaIlS5bQ1KlTqXv37hQQECDpwhR+PPt+98TERPrwww/p888/pylTplBgYKBYxVCpVOTj40M33XQT/fjjj5SXl9fqiv/a2lraunUr3XXXXRQcHCx57wMGDKD333+fCgsLL/l98zxP+/fvpw4dOogZyrRp05q0X1N7o1WKgOM42rlzJ82cOZNCQ0PF3OpCl7+/P02ePJluueUWio2Nlezlo1arKSEhgZYsWULHjx93GDNoTXAcR2lpabRgwQKKiIiQtBOio6Ppsccea5F2wunTp+mGG24QM5ZBgwbRli1b5GbtnlYnAo7jaNeuXTR16lSxpwcAsSqW1G4a0ujcSKNzI7WbhljV+fo9bPvphIaGio1m2HLQgIAAeuCBB2jTpk1XdFH7pcDzPOXn59OyZctowIABkm5UPz8/uummm2jLli2X1E4oLCykl156SRw0i4yMpGXLlsnN2j2t7vTK9PR0fPLJJ1i1alX9/H+WhbuPBzqN6om+t45Ev9tHofv1AxDeKwZqrRp1ZdWwmi0A1U9+q62thclkAsuy8PT0xPDhw/HMM8/g9ttvR0JCAtzd3Zu8iOZqwjAMPD090alTJ3Tu3BmlpaXiWgSDwYCsrCykpaVBrVajQ4cO0Gq1F/25VCoVqqqq8Ndff8FsNsNkMqFXr14YMmSI5Pyz9k6rEgHHcfjtt9+wdOlS8agk7xBfjHjsBgy+ZzyiB3VBUOdwBHQMQWiPDugwsCv0fp4oSsmBufb8+VwsyyI0NBQPP/ww5s2bh5EjRyIoKKhJC2haG1qtFtHR0Rg6dChqa2uRnp4Og8EgTvU+fPgwjEYj4uPjL3rhvkqlQm1tLdatW4eKigpwHIfY2FgMGDCgSTtvtBdalQgyMzPx3XffYd++fSAiaNzdMOT+Ceh98zB4hvhCpalf1sgwDFRqFbReevh3CASrUiHnSAZ4a/2U5Pj4eLz22muYNWsWoqKixPn8bRVh/ULv3r0REBCAM2fOoKamBlarFdXV1Th58iRyc3MRFRUFf3//JufiDMOgrq4O+/btE49xFQ4n7NChg9y83eJ8Uv1V4uzZs+LSRYZhED2wK+JG9oK73/mF7fYwDAOPAB90GtkTHQbEgWHrbYTjVlvqyNTWAMuyCA8Px5133ol33nkHQ4cOhZeXF3ieR3FxMVasWIEXX3wR69evR1VVVZMX68gP7svMzMS5c+fkZu2aViWCoqKi88ccMUCHAV3g1yFIdG5nMCwD/+hgdBjQRfwhi4qKxPpzU52hLcAwDAICAjBp0iQsWbIE119/vVhtqa6uxqZNm/DCCy/gp59+QklJSZMWynh5eUnWWufk5ODcuXOSkzDbO62qOnTgwAGxkcYwDBKnDUFEQiwYVeNaZVUsys4V4/SWYyCeYLVaodfrwXEcysvLUVlZierqavE0SY1G47RkaSuoVCoEBgaib9++0Gq1yMnJQXV1NaxWK8rKynD48GHU1NQgIiICvr6+jZaGarUahYWF2LJlC2pqasDzPOLi4jBgwADJOc7tmVYlgqSkJKxfvx4mkwkMw6Dz6ASEdI8Eq274RwQA3sohPzkLZ7Ymg3gCx3FITU3FP//8gz///BObNm3C/v37cfz4ceTl5cHb2xt+fn5gWRYWi0X88dtS24FlWfj6+iIhIQFBQUEoKChAWVkZzGYzampqcOLECRQUFCAwMBBBQUEN7srHMAwqKytx6NAhZGVlAbb12gMHDkRYWJjcvF3SqkSQnp6Obdu2obKyEgwYBHQKQ2h8B2g9dXJTCbWlVUjbkoTcI/WNO9h6mkwmE2pqalBQUIBTp05h37592LRpE8xmM0aPHg0AOHToENatW4f8/HwEBATA09MTsO1YV1tbC57nJfsMtSYYhoGHhwd69OiB2NhYsRpoNBphNBqRnJyM9PR0+Pn5ISoqqsFuVLPZjJSUFBw+fBiwlQ5Dhw5Fly5d5KbtklYlgqqqKhw8eLA+R2IAq9GC4G6R8I0IANPQwngLh5wjGTi8fCtqiuqPVPX29oavry+I6ksFebvA29sb06dPR1lZGebNm4cvv/wSe/fuRWhoKPr06YOcnBysXr0a//zzD5KSkpCRkYGcnByUlJSI1Q61Wt1qxKFWqxEdHY1evXqB53nk5eWJewnl5+cjKSkJVqsVoaGh8PX1ddhkQK1WIzMzE5s3bwbZjo4dPHgwevfu7WDbHmlVItBoNDh9+nT9rmhWDnWl1WBVKgR0DIHe18NBCLyVR8mZPBxevh0ZO06C+PotTsaPH49bb70ViYmJ6Ny5Mzp06ICgoCD4+PigQ4cOmDp1KgYPHoyysjJ89tlnKCwshNVqRUJCAkaOHInffvsN//d//4c1a9Zg8+bNWL9+PbZv3469e/fi0KFDSE5OxsmTJ5Geno7s7GyUlpaKpYZGo2m0Dn65ELZY7NmzJ7y8vMTqkdVqRXl5OQ4cOIDa2loEBQUhNDRU4txubm7Iz8/Hli1bYDAYwHEcunXrhv79+1/VHfOuFK1KBB4eHjCbzTh+/DiKiopAPKEiuwSGilqwrApqNw1UbmpwFg5VBWU4dyANR37ZgVMbDsNitIBhGPTs2RNPP/007r77blx77bUYO3Yshg0bhkGDBmHQoEEYN24crr/+enh7e4OIUFFRAYvFgj59+mDatGno2LEjNm3ahI0bN8JoNILneVgsFlRUVCA7OxsnT57E3r17sXnzZmzevBm7d+/Gvn37cOjQISQlJeH48eNIS0sTxWEwGAC7xrh9qdTSpQjDMPDx8UHPnj0RGhqKkpISFBcXw2QywWQy4cSJE8jJyYGXlxfCwsLE6hHDMCgrK8PBgweRl5cHIkJQUBAGDRqEgIAA8T239PttLTAkrytcZUpLS/HFF1/gww8/RF5eHgBApVEjoGMogrqEwyvQBwSgpqQSxWl5KDtbAKu5vjsvPDwcc+bMwezZsxEQECCmaZsjJb4WckGh6nD69Gn4+fmha9eu0Ov12Lt3Lz7//HPs27cPubm5YsPZGYITCX+r1Wp4e3sjMDBQbJQGBgYiODgYISEhCA0NRWhoKMLCwhAcHAxPT8/L4lwGgwGHDh3CN998g1WrVqGkpASw5frdunXD3XffjVtvvRXh4eEAgDNnzmDBggVYvnw5eJ5HVFQUxo8fj86dOyM0NBTx8fHo3r27wzaX7YFWJwLYBs2WLl2Kb7/9FgUFBQ51ejkMwyA0NBR33XUXHnjgAcTGxspNLgrhDILTp0+juLgYhYWFKCgoQH5+vngJDVBBYMJ7bOi9arVa+Pr6IjAwEAEBAaJIgoODERYWJl6hoaEICgqCTqeTiKu5QklJScGKFSvw1VdfIS8vDxzHgWVZREVF4eabb8Y999yD4OBgbNy4ER9++CH2798vCl6lUsHDwwNBQUHo1KkTBg8ejMmTJyMhIaHB3qa2SKsUAREhKysLv//+O1asWIHjx4+LVRMhnmEYsCwLnU6H+Ph43HbbbZg6deolC8AZBoMBlZWVKCsrQ3l5OcrKylBWVoaCggLk5eUhNzdX/F/opiQi8DzvIBJ7hPfv6+sLf39/+Pv7w8/PDwEBAQgJCUFERATCw8PF/4UpEcJnF8TRmECICIWFhVi3bh0+++wzJCUlwWg0gmEY+Pr6YuTIkQgPD8euXbuQmpra4GbBDMPAz88PAwYMwL333ovrr79e7Elr67RKEQhUVlYiJSUFW7duxc6dO5GSkiKWDMHBwejRowdGjhyJUaNGoXv37ld00hfP8zAYDKipqUF1dbV4lZaWIjs7G2fPnkVWVhbOnj2Lc+fOobKyssnbLbIsC3d3d3h5eUku4SSe2NhYxMTEICYmBlFRUU067sloNGLPnj346KOP8Ndff8Fi2y1bpVJBq9VKDh5pDJVKhV69emH+/Pm45ZZbmjxPqTXTqkUAu3MICgsLUV5eDoPBACKCXq+Hv78/QkJC4O/v32q68qxWK2prayXCqK6uRlFRkTglITs7G+fOnUN+fr7Yq2S1WsHzPDiOa7D9odFo4OHhIRGGt7c3QkJCEBkZiQ4dOiAqKgodOnRASEgI3N3doVKpwLIsVCoVOI5DSkoKfvrpJ/z000/Iz88XSygGgNaNRY+OXrhmQAB6dPSCh16NojITDqRUYsv+EuSXGGHlCBqNBsOGDcMbb7yBgQMHXpXesJak1YugvSCsA6ipqUFdXZ0olLy8PJw7dw6ZmZnIyspCZmYmiouLYTQawXGc5HImDoZhRHG4u7vD09MTer0evr6+CA8PR4cOHRATE4Po6GhER0cjICAAxcXFWL58Od577z2xBPByV+O6YcG4f0oUunf0go+nGhoVC6OJQ0mlGXuPl+OD5Zk4kloJK0fw9vbGrbfeisWLF8PX11f+ttoUigiuIkQEi8UidmEKV3l5ObKysnDmzBmkp6fjzJkzyMjIQHl5OaxWqygI4X9nPyHLstBoNNBqteKl0+ng5+eHDh06oLKyEtu2bYPFYoFaxWDcoCAsfKQrukV7Qq12rFrVGTls3FeMp947ibxiIwAG3bt3xyeffILhw4e36dJAEUErhOM4mM1mcfqDyWSCwWBAcXGxpNTIyspCbm4uqqurYTabxctkMjkdKYetTi/07Ai9W50i3TH/zjjMui4cGrXzaiUBKCw1YdE3Z/DNXzkwmDgEBQVh/vz5ePzxx8Wt3tsiigjaEBzHwWq1wmKxwGw2w2KxwGAwIDc3FxkZGZKrqKgIdXV1YkkjCMTZFOlr+gfgg/k90aVD42MAJjOPbYdLceerR1FeZYFOp8OsWbPw/vvvt+mRZUUE7QCe5x2uuro6ZGdn4/Tp0zh9+jTOnDmDU6dOoaCgAHV1dSgtLRUFMW10KL58JRGe+sarNDwRzuYaMOqB3SguN0OlUmHKlCn47rvv2vQgmiKCdgrZJg9arVbxMpvNKC4uxvHjx/HMM88gOzsbRIQbR4bgi5cS4OvV+FRyjiecyqrFuEf2oqTCDLVajenTp2PZsmVtuiRwXgFUaPMIUzh0Oh08PT3h6+uL4OBgxMfHY+TIkYiJiRG7lUurLDibVz/HqTHMFh4nM6phtdbnm1qtFkFBQRcco2jtKCJwMRiGgU6nQ7du3cSBrszcOmw9WAKjqeHBPCKguNyMVdsLYDDX23l7eyM+Pr5N9wxBEYFr4u7ujpEjR4oj7AWlJvy5tQD/HipDrcFRCERASYUZf24rwJb9pTBbeKhUKkRGRraLPYoUEbggbm5uGDBgAIYOHQrY6vqHT1Xhne/TsXJzPk5l1qLGwMHCEUorzTiYUoGvVmXjs5VZKKu0gKj+FM8JEyaga9eurWa0vrkoDWMXxWAwYNOmTXjuuefsjsIFIoP16N/dB52i3KHXqlBWacGJs9U4nFKJ6joriOqPgZ08eTIWLlyIuLg4RQQKbZeKigqsWrUK//vf/3Ds2LHz84gYuwU0BBAIgpdotVqMHz8ec+fObfMjxQKKCFycqqoqrFmzBj/++CP27NmDqqoqyRRwYdq2SqVCeHg4rrvuOsyaNQv9+/dvN2sKFBEowGAwIC0tDTt37sSOHTvErWlMJhN8fHwQHR2Nvn37YvTo0Rg0aBAiIyPbfBXIHkUECiI1NTXIz89HSUkJampqwHEctFotfHx8EBwcjODg4HaT+0ugBjh9+jQJe/z7+/tTVVWV3ETC8uXLRfuXXnpJHn1ZGDx4MAGg9PR0eZRThg0bRgAaPNn+SlFUVEQajYb8/f3b3fFI69atu6I+0BI0qUwrKyvD77//Lg+WsH79enlQq0OYTtzWRzhbMyqVCjqdrk2NHVxQBFFRUfD19cVbb73V4PpTs9mMDRs2tPrush9++AEpKSmIjIyURym0EMOGDUNKSgoef/xxeVSr5YIe6+fnh+uvvx7nzp0Tt0CRs3r1ahQXF2P+/PmN5rJVVVU4ceIE9u/fj4yMDKfTeu2pra1FcnIyjhw5Iu6o1hBEhJycHBw8eFCcGCYnLCwMMTExDeZSFosFqampOHToECorK+XREnieR0ZGRqPPuxxYLBacOnUKBw8eRGFhoTzagZqaGpw8eRL79+/H6dOnxbXFDWGxWJCcnIzc3Fynn8loNCIpKQnJycninkr26PV6xMTEwM/PTx4lUlRUhEOHDuHMmTONrrvmeR5ZWVk4cOAACgoK5NEth7x+JCC0CRISEmj58uXEMAytWLFCbkYcx9G1115LAwcOpG3btpFKpXKoDxYUFNB//vMfyUF6sJ2RtXfvXoczxAwGA33wwQeSM8tUKhUtWrRIcs6u0CbYv38/TZ8+XTzgjmEYuv7666moqEiSrrM2QUhICE2aNIlOnTpFHTt2lDzvjTfecHpK5MGDB6l79+6iLcMwdM0119DZs2flpk5pTpuA53navHkzRUdHS77Dm266iUpKSuTmVFpaSg8//LB41plwBQcH08aNGyWf67333iMAlJWVRddeey3Bdkjgzz//TBs2bCAA9MMPP9Bvv/1Ger1eTMvHx4f+/vtvSVrO2gQPPvggAaCUlBR66qmnJH7Qt29fSktLE20FCgoKaMKECaIdy7L0yCOP0NatWwkALV26VH5Ls2mSCLKyskitVtPEiRMdHLaoqIgCAwPp1VdfdSqC/Px8io2NJQD02GOP0bp162jdunU0e/ZsYlmWNBoNHThwQLTnOI5uueUWAkBDhgyhFStW0N9//00DBgwglmVp5syZ4qmNggiCg4MpJiaGPvnkE1q2bBkNHDiQANANN9wgeb8NiSA0NJT0ej1NmTKFfvjhB1q8eDH5+/uTSqWi9957T7QlIvrpp5/I29ub9Ho9LVq0iDZu3Eivvvoq6XQ6CgsLoxMnTkjsndEcEXzwwQek1WopPDycPv30U9q4cSM98sgjBIBiYmIkAiwvL6f4+HgCQPfeey+tWbOGNmzYQI8//jhpNBpSqVSSUyoFEdx3332kVqupR48e5OHhQYcOHRJFMHToUPLx8aGHHnqIfv31V3ryySfF32/t2rViWo2JYMiQIeTr60tvvPEG/fTTTzRp0iRiGIa6d+8uEVJlZSXFxcWRWq2mRx55hDZu3EiLFi0id3d36tSp09URgdVqpYkTJ5JGo3HoWdmwYQOpVCrav3+/UxG8/vrrxDAMLVmyxEFAb731FgGg999/Xwz77rvviGEYuu666yQHVxsMBho5ciS5u7tTSkoKkZ0Ixo4dK3Gm8vJyio2NJY1GQzk5OWJ4QyJgWZbeeecdyZGou3fvFh27rq6OiIgqKiooOjqawsPD6ejRo6ItEdGWLVvI29ubBg8eTEajURIn52JFkJSURG5ubtSxY0c6ffq0JO6nn34irVZL999/vxj28ccfEwB64YUXHEqyL774ghiGoVdffVUME0Sg0Who+/btRLbv22w2iyJgWZZ+//13u5SIfvzxR1KpVPTwww+LYY2JIC4uzqF0njx5MjEMQ/v37yeylXj33nuvg18QER09epT8/PxaXAQXbBPANv32xRdfBM/zWLNmjRhORFi8eDE6duyIxMREyT0Cc+bMwbZt2/DQQw85tBeGDh0KhmHELQKJCD/++CN0Oh2++eYbyeZOOp0O8+fPx+233+7Q+H744YclK5t8fX0xaNAgWCyWJh09FBkZiaeffloyBWDIkCGIiopCbW2tWPfds2cPsrOzcccddzh83muuuQaTJk0S91FtSf7++29YLBa89dZbiIuLk8RNmzYNUVFRWLVqlbhzxH/+8x/s3LkTL774osN31bdvX7As67Q9MWTIEAwbNgywfd/25zX06dMHU6ZMsbMGRo0aBQ8PjybX16dPn46goCBJ2OjRo0FEOHnyJACgoKAAX3/9Nbp164aHH35YYpuQkIDJkydLwlqCJokAABITExEaGopNmzaJYZmZmdi2bRvmzZvX4CCKj48PRowYIS7EJiKUlJTgl19+weLFiyWNLyLCuXPnEBUVheDgYLtU6rnhhhvwxRdfOOyb37lzZ8lr2I4hgm009EKEhoY6CBS2DYKJ6k++AYBff/0VPM8jMTHRYYcIk8mE+Ph41NTUIDU1VZ7UJXHw4EG4ubmhc+fODs8EgB49eqC4uBinTp0CbJ992LBhktVeFRUV+OOPP7Bo0SKnW7cAwKRJkxxEI9C/f3+HOI1GAzc3tyZ9x7AJSU5oaChg64aHbU9UALj22msdDk1hGAY33nijJKwlcP6JneDh4YHevXtj165dYk/Nli1boNVqMXbsWLm5hF27duGee+5Bnz594Ofnh6CgIMyaNQvHjx+X2JFtl+jGehaccalL+xoSMCPbRTo9PR0AMGvWLOh0Oofr5ZdfBgCnueylkJ2dDZPJhN69ezs8U6/XY9WqVYDtLAKBI0eO4MEHH0T//v3F7R1nzJiBAwcO2KUspbGuY2e/iZBxOOtFcoaz/YmE0lcQZk1NDQAgJCREYidwOU7VbLIIWJbFnXfeidLSUvFLX7t2LSIiIhr98v766y+MHDkSK1euhEajwQMPPIBffvkFxcXFWLZsmUMOzDBMgzlVQ8hzqIulqfcLds8++yw++eSTBq+BAwfKb70kWNuepW+88YbDs+yvHj16AAB27NiBwYMH4/vvvwfHcbjrrrvwww8/oKCgACtWrHD4zpuCPFduDg11Tdsj2AhikNNQ+KXQtF/fxpQpUxASEoJ3330X5eXl2Lp1K2bPnt3onjNvvfUWdDod/v33X+zZsweLFy/GLbfcAl9fX4c+a4ZhxPO3nAlh//79uPnmm/Hvv//Ko64IgwYNAgD07t0bDz/8cIOXvLp2qXTp0gVEhBtvvNHhWfZXdHQ0YPvOYWtLHDhwAP/73/9wxx13IDAwsNF++dZAVFQUAGD37t1OS5itW7fKgy6ZixKBVqvFpEmTcPbsWbz33nuwWq2488475WYSsrKyxAXe8rnnf//9N8i2ezNsOV5iYiLy8vKcftitW7fijz/+QG1trTzqinDTTTfBzc2twSkkt956K7p27SrWa1uK4cOHw2Qy4eeff3ZwjJqaGiQmJqJXr14oLS0FbNU2X19f9OvXzyH33bx5s7gtS2ukY8eO6Nu3L/bu3Ys9e/ZI4qqrq/Hrr79KwlqCixIBAEycOBFVVVV49913MXz4cIfWvpzIyEgUFBRg37594pbllZWVWLp0KT755BPANpIsMG/ePHh4eOCWW27B4cOHxY2jDh48iMWLFyMsLAyDBw+2e8KVo2fPnujbty9WrlyJt956C2VlZeA4DpWVlfjoo4/w22+/wcPDAxEREfJbnWK1WnHw4EHs37/f6ZWZmQkAmDp1KsLCwvDf//4Xy5YtQ1VVFTiOQ0lJCd5++20cP34cPXr0EA8miY2NRVlZGbZu3So2nqurq7F8+XL897//BWwN5daIm5sbfvjhB+hsG3vt3r0b586dw7FjxzBz5kxkZGTIb7lkLloEI0eOFHsEJkyYII92YN68eTAajZg4cSJiY2MRHR2Nzp07Y+7cuXjnnXfAsiySk5PFHK5Xr174+uuvUVpaihEjRiA2NhaxsbEYPnw4iAgbNmxAYGCg/DFXBJ1Oh9WrV6NHjx54/vnn0aVLF/HzPPHEE4iJicGqVaug1+vltzqlqqpKnKPv7BKqNSEhIdi5cydCQ0Px4IMPIi4uDtHR0ejatStef/11dO/eHR988IGY7ty5c8HzPGbMmIHY2Fh06NABcXFxuO+++/Daa69Bo9EgJSWl1ZYG3bp1w9KlS5GXl4eRI0eiZ8+eGDhwII4dO4a5c+fKzS+ZBs8sY1kWYWFhGDduHBISEsTGlLu7Ozp27IiRI0fi1ltvlfTlC6cojho1SqzbxcfHY9y4cfD29oZWq0VcXBxuu+02fPDBBxg7dizCw8PRvXt3JCQkiEV3fHw8pk+fjuDgYGg0GkRGRuKOO+7A//73P3Tt2lV8nre3N4YPH46hQ4dCp5Me8+ru7o6+ffti+PDh4q4KQtfh0KFDxXaMr68vRo0ahfj4eMn9sKU/YsQIDBw4UGwYenh44LbbbkPXrl3h5eUFvV6PPn364IEHHsDixYubVAqwLIvg4GBMmDABEydObPAaM2aMeOiIn58f7rjjDsTGxoq7Tw8dOhSPPfYY3nvvPUnvTceOHTF58mT4+PjAzc0NHTt2xIwZM7BkyRJMmjQJ0dHR6Pn/7d29iuJQAIbhbwXTCRaWFhYWHpxGBCFFjI123oLYeCcWY+FtWHkNgpaihWBlIfb2giBkG0eYHZZdhhlw93ufNj/N4Q3kkJzz8qJ6vf74sjaEoHa7/eEBk8/nValU1Ol0HmP6JpfLqVQqKU1T1Wq1357/NhZJknzYQyKKIlWrVaVp+tg3+cd977nBYKBWq6U4jjUajTSdTrXdbrVYLDQcDhVCeHevz+KnGjyV6/Wq19dXxXGsbrf7biYryzINBgPNZjPt93siwP/pdrsphKDj8aj1eq1ms/k4djqd1Gg0VC6Xtdvt/npq+0+IAE9ntVqp3+8riiIlSaJisajz+azlcilJms/n6vV6v172aUSAp7TZbDSZTHQ4HHS5XFQoFBRC0Hg8/vLNGYkATyu7r6ydZZly92VfvgMRwN7XvFkA/zAigD0igD0igD0igD0igD0igD0igD0igD0igD0igD0igD0igD0igD0igD0igD0igD0igD0igD0igD0igD0igD0igD0igD0igD0igD0igD0igD0igD0igD0igD0igD0igD0igD0igD0igD0igD0igD0igD0igD0igD0igD0igD0igD0igD0igL2fiXARUm1lzUAAAAAASUVORK5CYII=;" parent="1" vertex="1">
          <mxGeometry x="1403.14" y="268.19" width="116.88" height="371.81" as="geometry" />
        </mxCell>
      </root>
    </mxGraphModel>
  </diagram>
</mxfile>
